<svg width="64" height="64" viewBox="0 0 64 64" fill="none" xmlns="http://www.w3.org/2000/svg">
<path d="M20 9.33334C15.8506 9.45868 13.3786 9.92001 11.6666 11.632C9.32263 13.9787 9.32263 17.752 9.32263 25.3013V42.6507C9.32263 50.2027 9.32263 53.976 11.6666 56.3227C14.008 58.6667 17.7813 58.6667 25.3226 58.6667H38.656C46.2 58.6667 49.9706 58.6667 52.312 56.32C54.6586 53.976 54.6586 50.2027 54.6586 42.6507V25.3013C54.6586 17.7547 54.6586 13.9787 52.312 11.632C50.6026 9.92001 48.128 9.45868 43.9786 9.33334" stroke="white" stroke-width="4" stroke-linecap="round" stroke-linejoin="round"/>
<path d="M36 29.3333H45.3333M18.6666 32C18.6666 32 20 32 21.3333 34.6667C21.3333 34.6667 25.568 28 29.3333 26.6667M36 45.3333H45.3333M21.3333 45.3333H24M19.9893 10C19.9893 7.42401 22.08 5.33334 24.656 5.33334H39.3226C40.5603 5.33334 41.7473 5.82501 42.6225 6.70018C43.4976 7.57535 43.9893 8.76233 43.9893 10C43.9893 11.2377 43.4976 12.4247 42.6225 13.2998C41.7473 14.175 40.5603 14.6667 39.3226 14.6667H24.656C23.4183 14.6667 22.2313 14.175 21.3561 13.2998C20.481 12.4247 19.9893 11.2377 19.9893 10Z" stroke="white" stroke-width="4" stroke-linecap="round" stroke-linejoin="round"/>
</svg>
