<svg width="64" height="64" viewBox="0 0 64 64" fill="none" xmlns="http://www.w3.org/2000/svg">
<path d="M46.6668 50.6667H58.6668M58.6668 50.6667L52.0002 44M58.6668 50.6667L52.0002 57.3334M32.0002 5.33337L25.3335 12L32.0002 18.6667" stroke="white" stroke-width="4" stroke-linecap="round" stroke-linejoin="round"/>
<path d="M28.0002 12C33.3045 12 38.3916 14.1071 42.1423 17.8579C45.893 21.6086 48.0002 26.6957 48.0002 32C48.0002 37.3043 45.893 42.3914 42.1423 46.1421C38.3916 49.8929 33.3045 52 28.0002 52H5.3335" stroke="white" stroke-width="4" stroke-linecap="round" stroke-linejoin="round"/>
<path d="M18.016 14.6667C14.9708 16.4212 12.4416 18.9471 10.6832 21.99C8.92484 25.033 7.99937 28.4856 8 32.0001C8 36.5014 9.488 40.6561 12 44.0001" stroke="white" stroke-width="4" stroke-linecap="round" stroke-linejoin="round"/>
</svg>
