<svg width="64" height="64" viewBox="0 0 64 64" fill="none" xmlns="http://www.w3.org/2000/svg">
<g clip-path="url(#clip0_627_2905)">
<path d="M6.85707 25.1429C5.64465 25.1429 4.48189 24.6613 3.62459 23.804C2.76728 22.9467 2.28564 21.7839 2.28564 20.5715V6.8572C2.28564 5.64478 2.76728 4.48202 3.62459 3.62471C4.48189 2.7674 5.64465 2.28577 6.85707 2.28577H57.1428C58.3552 2.28577 59.518 2.7674 60.3753 3.62471C61.2326 4.48202 61.7142 5.64478 61.7142 6.8572V20.5715C61.7142 21.7839 61.2326 22.9467 60.3753 23.804C59.518 24.6613 58.3552 25.1429 57.1428 25.1429M6.85707 25.1429H57.1428M6.85707 25.1429C5.64465 25.1429 4.48189 25.6245 3.62459 26.4819C2.76728 27.3392 2.28564 28.5019 2.28564 29.7143V43.4286C2.28564 44.641 2.76728 45.8038 3.62459 46.6611C4.48189 47.5184 5.64465 48.0001 6.85707 48.0001H57.1428C58.3552 48.0001 59.518 47.5184 60.3753 46.6611C61.2326 45.8038 61.7142 44.641 61.7142 43.4286V29.7143C61.7142 28.5019 61.2326 27.3392 60.3753 26.4819C59.518 25.6245 58.3552 25.1429 57.1428 25.1429M34.2856 13.7143H50.2856" stroke="white" stroke-width="4.57143" stroke-linecap="round" stroke-linejoin="round"/>
<path d="M34.2854 36.5715H50.2854M31.9997 48.0001V61.7144M9.14258 61.7144H54.8569M14.8569 37.7144C14.5538 37.7144 14.2631 37.594 14.0487 37.3797C13.8344 37.1653 13.714 36.8746 13.714 36.5715C13.714 36.2684 13.8344 35.9777 14.0487 35.7634C14.2631 35.5491 14.5538 35.4287 14.8569 35.4287C15.16 35.4287 15.4507 35.5491 15.665 35.7634C15.8793 35.9777 15.9997 36.2684 15.9997 36.5715C15.9997 36.8746 15.8793 37.1653 15.665 37.3797C15.4507 37.594 15.16 37.7144 14.8569 37.7144ZM14.8569 14.8572C14.5538 14.8572 14.2631 14.7368 14.0487 14.5225C13.8344 14.3082 13.714 14.0175 13.714 13.7144C13.714 13.4113 13.8344 13.1206 14.0487 12.9063C14.2631 12.6919 14.5538 12.5715 14.8569 12.5715C15.16 12.5715 15.4507 12.6919 15.665 12.9063C15.8793 13.1206 15.9997 13.4113 15.9997 13.7144C15.9997 14.0175 15.8793 14.3082 15.665 14.5225C15.4507 14.7368 15.16 14.8572 14.8569 14.8572Z" stroke="white" stroke-width="4.57143" stroke-linecap="round" stroke-linejoin="round"/>
</g>
<defs>
<clipPath id="clip0_627_2905">
<rect width="64" height="64" fill="white"/>
</clipPath>
</defs>
</svg>
