<svg width="64" height="64" viewBox="0 0 64 64" fill="none" xmlns="http://www.w3.org/2000/svg">
<path d="M55.8667 29.3333H60V34.6667H55.8667C54.6667 45.7867 45.7867 54.6667 34.6667 55.8667V60H29.3333V55.8667C18.2133 54.6667 9.33333 45.7867 8.13333 34.6667H4V29.3333H8.13333C9.33333 18.2133 18.2133 9.33333 29.3333 8.13333V4H34.6667V8.13333C45.7867 9.33333 54.6667 18.2133 55.8667 29.3333ZM13.52 29.3333H17.3333V34.6667H13.52C14.0867 38.6599 15.9351 42.361 18.7871 45.2129C21.639 48.0649 25.3401 49.9133 29.3333 50.48V46.6667H34.6667V50.48C38.6599 49.9133 42.361 48.0649 45.2129 45.2129C48.0649 42.361 49.9133 38.6599 50.48 34.6667H46.6667V29.3333H50.48C49.9133 25.3401 48.0649 21.639 45.2129 18.7871C42.361 15.9351 38.6599 14.0867 34.6667 13.52V17.3333H29.3333V13.52C25.3401 14.0867 21.639 15.9351 18.7871 18.7871C15.9351 21.639 14.0867 25.3401 13.52 29.3333ZM42.6667 42.6667H21.3333V40C21.3333 36.4533 28.4533 34.6667 32 34.6667C35.5467 34.6667 42.6667 36.4533 42.6667 40V42.6667ZM32 21.3333C33.4145 21.3333 34.771 21.8952 35.7712 22.8954C36.7714 23.8956 37.3333 25.2522 37.3333 26.6667C37.3333 28.0812 36.7714 29.4377 35.7712 30.4379C34.771 31.4381 33.4145 32 32 32C30.5855 32 29.229 31.4381 28.2288 30.4379C27.2286 29.4377 26.6667 28.0812 26.6667 26.6667C26.6667 25.2522 27.2286 23.8956 28.2288 22.8954C29.229 21.8952 30.5855 21.3333 32 21.3333Z" fill="white"/>
</svg>
