<svg width="64" height="64" viewBox="0 0 64 64" fill="none" xmlns="http://www.w3.org/2000/svg">
<g clip-path="url(#clip0_627_2941)">
<path d="M52 34C53.375 34 54.6667 34.2604 55.875 34.7812C57.0833 35.3021 58.1458 36.0104 59.0625 36.9062C59.9792 37.8021 60.6979 38.8646 61.2188 40.0938C61.7396 41.3229 62 42.625 62 44C62 45.0833 61.8333 46.1354 61.5 47.1562C61.1667 48.1771 60.6667 49.125 60 50V63.25L52 59.25L44 63.25V50C43.3542 49.125 42.8646 48.1771 42.5312 47.1562C42.1979 46.1354 42.0208 45.0833 42 44C42 42.625 42.2604 41.3333 42.7812 40.125C43.3021 38.9167 44.0104 37.8542 44.9062 36.9375C45.8021 36.0208 46.8646 35.3021 48.0938 34.7812C49.3229 34.2604 50.625 34 52 34ZM52 38C51.1667 38 50.3854 38.1562 49.6562 38.4688C48.9271 38.7812 48.2917 39.2083 47.75 39.75C47.2083 40.2917 46.7812 40.9271 46.4688 41.6562C46.1562 42.3854 46 43.1667 46 44C46 44.8333 46.1562 45.6146 46.4688 46.3438C46.7812 47.0729 47.2083 47.7083 47.75 48.25C48.2917 48.7917 48.9271 49.2188 49.6562 49.5312C50.3854 49.8438 51.1667 50 52 50C52.8333 50 53.6146 49.8438 54.3438 49.5312C55.0729 49.2188 55.7083 48.7917 56.25 48.25C56.7917 47.7083 57.2188 47.0729 57.5312 46.3438C57.8438 45.6146 58 44.8333 58 44C58 43.1667 57.8438 42.3854 57.5312 41.6562C57.2188 40.9271 56.7917 40.2917 56.25 39.75C55.7083 39.2083 55.0729 38.7812 54.3438 38.4688C53.6146 38.1562 52.8333 38 52 38ZM56 56.75V53.1562C54.75 53.7188 53.4167 54 52 54C50.5833 54 49.25 53.7188 48 53.1562V56.75L52 54.75L56 56.75ZM52 16C50.8958 16 49.8646 16.2083 48.9062 16.625C47.9479 17.0417 47.0938 17.6146 46.3438 18.3438C45.5938 19.0729 45.0208 19.9167 44.625 20.875C44.2292 21.8333 44.0208 22.875 44 24C44 25.9167 43.5729 27.7188 42.7188 29.4062C41.8646 31.0938 40.6562 32.5208 39.0938 33.6875C39.4896 33.875 39.8646 34.0833 40.2188 34.3125C40.5729 34.5417 40.9375 34.7812 41.3125 35.0312L38.9688 38.2812C37.9479 37.5521 36.8438 36.9896 35.6562 36.5938C34.4688 36.1979 33.25 36 32 36C30.3333 36 28.7812 36.3125 27.3438 36.9375C25.9062 37.5625 24.6354 38.4167 23.5312 39.5C22.4271 40.5833 21.5625 41.8646 20.9375 43.3438C20.3125 44.8229 20 46.375 20 48H16C16 46.4792 16.2083 45.0104 16.625 43.5938C17.0417 42.1771 17.6354 40.8438 18.4062 39.5938C19.1771 38.3438 20.1042 37.2188 21.1875 36.2188C22.2708 35.2188 23.5 34.3646 24.875 33.6562C23.3333 32.5104 22.1354 31.0938 21.2812 29.4062C20.4271 27.7188 20 25.9167 20 24C20 22.8958 19.7917 21.8646 19.375 20.9062C18.9583 19.9479 18.3854 19.0938 17.6562 18.3438C16.9271 17.5938 16.0833 17.0208 15.125 16.625C14.1667 16.2292 13.125 16.0208 12 16C10.8958 16 9.86458 16.2083 8.90625 16.625C7.94792 17.0417 7.09375 17.6146 6.34375 18.3438C5.59375 19.0729 5.02083 19.9167 4.625 20.875C4.22917 21.8333 4.02083 22.875 4 24H0C0 22.9167 0.145833 21.8646 0.4375 20.8438C0.729167 19.8229 1.13542 18.8542 1.65625 17.9375C2.17708 17.0208 2.82292 16.1875 3.59375 15.4375C4.36458 14.6875 5.22917 14.0417 6.1875 13.5C5.5 12.7708 4.96875 11.9271 4.59375 10.9688C4.21875 10.0104 4.02083 9.02083 4 8C4 6.89583 4.20833 5.86458 4.625 4.90625C5.04167 3.94792 5.61458 3.09375 6.34375 2.34375C7.07292 1.59375 7.91667 1.02083 8.875 0.625C9.83333 0.229167 10.875 0.0208333 12 0C13.1042 0 14.1354 0.208333 15.0938 0.625C16.0521 1.04167 16.9062 1.61458 17.6562 2.34375C18.4062 3.07292 18.9792 3.91667 19.375 4.875C19.7708 5.83333 19.9792 6.875 20 8C20 9.02083 19.8125 10.0104 19.4375 10.9688C19.0625 11.9271 18.5208 12.7708 17.8125 13.5C19.5208 14.4375 20.9167 15.7292 22 17.375C22.5625 16.5417 23.2083 15.7917 23.9375 15.125C24.6667 14.4583 25.4583 13.8958 26.3125 13.4375C27.1667 12.9792 28.0729 12.625 29.0312 12.375C29.9896 12.125 30.9792 12 32 12C33 12 33.9792 12.125 34.9375 12.375C35.8958 12.625 36.8021 12.9792 37.6562 13.4375C38.5104 13.8958 39.3125 14.4583 40.0625 15.125C40.8125 15.7917 41.4583 16.5417 42 17.375C43.0833 15.7292 44.4792 14.4375 46.1875 13.5C45.5 12.7708 44.9688 11.9271 44.5938 10.9688C44.2188 10.0104 44.0208 9.02083 44 8C44 6.89583 44.2083 5.86458 44.625 4.90625C45.0417 3.94792 45.6146 3.09375 46.3438 2.34375C47.0729 1.59375 47.9167 1.02083 48.875 0.625C49.8333 0.229167 50.875 0.0208333 52 0C53.1042 0 54.1354 0.208333 55.0938 0.625C56.0521 1.04167 56.9062 1.61458 57.6562 2.34375C58.4062 3.07292 58.9792 3.91667 59.375 4.875C59.7708 5.83333 59.9792 6.875 60 8C60 9.02083 59.8125 10.0104 59.4375 10.9688C59.0625 11.9271 58.5208 12.7708 57.8125 13.5C58.7708 14.0417 59.625 14.6875 60.375 15.4375C61.125 16.1875 61.7708 17.0104 62.3125 17.9062C62.8542 18.8021 63.2708 19.7708 63.5625 20.8125C63.8542 21.8542 64 22.9167 64 24H60C60 22.8958 59.7917 21.8646 59.375 20.9062C58.9583 19.9479 58.3854 19.0938 57.6562 18.3438C56.9271 17.5938 56.0833 17.0208 55.125 16.625C54.1667 16.2292 53.125 16.0208 52 16ZM48 8C48 8.5625 48.1042 9.08333 48.3125 9.5625C48.5208 10.0417 48.8021 10.4583 49.1562 10.8125C49.5104 11.1667 49.9375 11.4583 50.4375 11.6875C50.9375 11.9167 51.4583 12.0208 52 12C52.5625 12 53.0833 11.8958 53.5625 11.6875C54.0417 11.4792 54.4583 11.1979 54.8125 10.8438C55.1667 10.4896 55.4583 10.0625 55.6875 9.5625C55.9167 9.0625 56.0208 8.54167 56 8C56 7.4375 55.8958 6.91667 55.6875 6.4375C55.4792 5.95833 55.1979 5.54167 54.8438 5.1875C54.4896 4.83333 54.0625 4.54167 53.5625 4.3125C53.0625 4.08333 52.5417 3.97917 52 4C51.4375 4 50.9167 4.10417 50.4375 4.3125C49.9583 4.52083 49.5417 4.80208 49.1875 5.15625C48.8333 5.51042 48.5417 5.9375 48.3125 6.4375C48.0833 6.9375 47.9792 7.45833 48 8ZM8 8C8 8.5625 8.10417 9.08333 8.3125 9.5625C8.52083 10.0417 8.80208 10.4583 9.15625 10.8125C9.51042 11.1667 9.9375 11.4583 10.4375 11.6875C10.9375 11.9167 11.4583 12.0208 12 12C12.5625 12 13.0833 11.8958 13.5625 11.6875C14.0417 11.4792 14.4583 11.1979 14.8125 10.8438C15.1667 10.4896 15.4583 10.0625 15.6875 9.5625C15.9167 9.0625 16.0208 8.54167 16 8C16 7.4375 15.8958 6.91667 15.6875 6.4375C15.4792 5.95833 15.1979 5.54167 14.8438 5.1875C14.4896 4.83333 14.0625 4.54167 13.5625 4.3125C13.0625 4.08333 12.5417 3.97917 12 4C11.4375 4 10.9167 4.10417 10.4375 4.3125C9.95833 4.52083 9.54167 4.80208 9.1875 5.15625C8.83333 5.51042 8.54167 5.9375 8.3125 6.4375C8.08333 6.9375 7.97917 7.45833 8 8ZM24 24C24 25.1042 24.2083 26.1354 24.625 27.0938C25.0417 28.0521 25.6146 28.9062 26.3438 29.6562C27.0729 30.4062 27.9167 30.9792 28.875 31.375C29.8333 31.7708 30.875 31.9792 32 32C33.1042 32 34.1354 31.7917 35.0938 31.375C36.0521 30.9583 36.9062 30.3854 37.6562 29.6562C38.4062 28.9271 38.9792 28.0833 39.375 27.125C39.7708 26.1667 39.9792 25.125 40 24C40 22.8958 39.7917 21.8646 39.375 20.9062C38.9583 19.9479 38.3854 19.0938 37.6562 18.3438C36.9271 17.5938 36.0833 17.0208 35.125 16.625C34.1667 16.2292 33.125 16.0208 32 16C30.8958 16 29.8646 16.2083 28.9062 16.625C27.9479 17.0417 27.0938 17.6146 26.3438 18.3438C25.5938 19.0729 25.0208 19.9167 24.625 20.875C24.2292 21.8333 24.0208 22.875 24 24Z" fill="white"/>
</g>
<defs>
<clipPath id="clip0_627_2941">
<rect width="64" height="64" fill="white"/>
</clipPath>
</defs>
</svg>
