<svg width="64" height="64" viewBox="0 0 64 64" fill="none" xmlns="http://www.w3.org/2000/svg">
<path d="M13.3335 42.6666L26.6668 34.6666M37.3335 29.3333L50.6668 21.3333M32.0002 13.3333V26.6666M32.0002 37.3333V50.6666M13.3335 21.3333L26.6668 29.3333M37.3335 34.6666L50.6668 42.6666M54.6668 24V38.6666M36.0002 54.6666L50.6668 46.6666M12.0002 46.6666L28.0002 54.6666M9.3335 40V24M12.0002 17.3333L28.0002 9.33331M52.0002 17.3333L36.0002 9.33331" stroke="white" stroke-width="4" stroke-linecap="round" stroke-linejoin="round"/>
<path d="M32 13.3333C34.2091 13.3333 36 11.5425 36 9.33331C36 7.12417 34.2091 5.33331 32 5.33331C29.7909 5.33331 28 7.12417 28 9.33331C28 11.5425 29.7909 13.3333 32 13.3333Z" stroke="white" stroke-width="4" stroke-linecap="round" stroke-linejoin="round"/>
<path d="M32 58.6666C34.2091 58.6666 36 56.8758 36 54.6666C36 52.4575 34.2091 50.6666 32 50.6666C29.7909 50.6666 28 52.4575 28 54.6666C28 56.8758 29.7909 58.6666 32 58.6666Z" stroke="white" stroke-width="4" stroke-linecap="round" stroke-linejoin="round"/>
<path d="M9.3335 24C11.5426 24 13.3335 22.2091 13.3335 20C13.3335 17.7909 11.5426 16 9.3335 16C7.12436 16 5.3335 17.7909 5.3335 20C5.3335 22.2091 7.12436 24 9.3335 24Z" stroke="white" stroke-width="4" stroke-linecap="round" stroke-linejoin="round"/>
<path d="M54.667 24C56.8761 24 58.667 22.2091 58.667 20C58.667 17.7909 56.8761 16 54.667 16C52.4579 16 50.667 17.7909 50.667 20C50.667 22.2091 52.4579 24 54.667 24Z" stroke="white" stroke-width="4" stroke-linecap="round" stroke-linejoin="round"/>
<path d="M54.667 48C56.8761 48 58.667 46.2091 58.667 44C58.667 41.7909 56.8761 40 54.667 40C52.4579 40 50.667 41.7909 50.667 44C50.667 46.2091 52.4579 48 54.667 48Z" stroke="white" stroke-width="4" stroke-linecap="round" stroke-linejoin="round"/>
<path d="M9.3335 48C11.5426 48 13.3335 46.2091 13.3335 44C13.3335 41.7909 11.5426 40 9.3335 40C7.12436 40 5.3335 41.7909 5.3335 44C5.3335 46.2091 7.12436 48 9.3335 48Z" stroke="white" stroke-width="4" stroke-linecap="round" stroke-linejoin="round"/>
<path d="M32.0003 26L37.3337 29V35L32.0003 38L26.667 35V29L32.0003 26Z" stroke="white" stroke-width="4" stroke-linecap="round" stroke-linejoin="round"/>
</svg>
