<svg width="64" height="64" viewBox="0 0 64 64" fill="none" xmlns="http://www.w3.org/2000/svg">
<g clip-path="url(#clip0_676_1281)">
<path d="M56 16H60V32H56V16ZM46 10H50V32H46V10ZM36 20H40V32H36V20ZM32 60H28V48C27.9984 46.4092 27.3658 44.884 26.2409 43.7591C25.116 42.6342 23.5908 42.0016 22 42H14C12.4092 42.0016 10.884 42.6342 9.75911 43.7591C8.63424 44.884 8.00159 46.4092 8 48V60H4V48C4.00318 45.3488 5.05776 42.8071 6.93244 40.9324C8.80712 39.0578 11.3488 38.0032 14 38H22C24.6512 38.0032 27.1929 39.0578 29.0676 40.9324C30.9422 42.8071 31.9968 45.3488 32 48V60ZM18 18C19.1867 18 20.3467 18.3519 21.3334 19.0112C22.3201 19.6705 23.0892 20.6075 23.5433 21.7039C23.9974 22.8003 24.1162 24.0067 23.8847 25.1705C23.6532 26.3344 23.0818 27.4035 22.2426 28.2426C21.4035 29.0818 20.3344 29.6532 19.1705 29.8847C18.0067 30.1162 16.8003 29.9974 15.7039 29.5433C14.6075 29.0892 13.6705 28.3201 13.0112 27.3334C12.3519 26.3467 12 25.1867 12 24C12 22.4087 12.6321 20.8826 13.7574 19.7574C14.8826 18.6321 16.4087 18 18 18ZM18 14C16.0222 14 14.0888 14.5865 12.4443 15.6853C10.7998 16.7841 9.51808 18.3459 8.7612 20.1732C8.00433 22.0004 7.80629 24.0111 8.19215 25.9509C8.578 27.8907 9.53041 29.6725 10.9289 31.0711C12.3275 32.4696 14.1093 33.422 16.0491 33.8079C17.9889 34.1937 19.9996 33.9957 21.8268 33.2388C23.6541 32.4819 25.2159 31.2002 26.3147 29.5557C27.4135 27.9112 28 25.9778 28 24C28 22.6868 27.7413 21.3864 27.2388 20.1732C26.7362 18.9599 25.9997 17.8575 25.0711 16.9289C24.1425 16.0003 23.0401 15.2638 21.8268 14.7612C20.6136 14.2587 19.3132 14 18 14Z" fill="white"/>
<path d="M38.4271 36.4343C36.6625 38.4457 34.5139 40.0914 32.0956 41.2846V48.1417C32.0956 48.7479 31.8548 49.3293 31.4262 49.758C30.9975 50.1866 30.4161 50.4274 29.8099 50.4274H16.0956C15.4894 50.4274 14.908 50.1866 14.4794 49.758C14.0507 49.3293 13.8099 48.7479 13.8099 48.1417V41.2846C8.99321 38.8803 5.3109 34.6837 3.5532 29.5953C1.79549 24.507 2.10246 18.9323 4.40823 14.0677C6.714 9.20311 10.8348 5.43618 15.8864 3.57532C20.9379 1.71447 26.5177 1.90796 31.4282 4.11429M13.8099 61.7143H32.0956" stroke="white" stroke-width="4.57143" stroke-linecap="round" stroke-linejoin="round"/>
<path d="M33.805 17.984C32.2004 17.7051 32.2004 15.4011 33.805 15.1223C36.6451 14.6255 39.2733 13.2954 41.3556 11.3011C43.4378 9.30679 44.88 6.73834 45.4987 3.92229L45.5947 3.47429C45.9421 1.88801 48.2004 1.87886 48.5616 3.46058L48.6804 3.97715C49.319 6.7823 50.7729 9.33591 52.8594 11.3166C54.9459 13.2974 57.5716 14.6167 60.4061 15.1086C62.0198 15.392 62.0198 17.7051 60.4061 17.9886C57.5724 18.4813 54.9477 19.801 52.8621 21.7817C50.7765 23.7623 49.3232 26.3155 48.685 29.12L48.5661 29.6366C48.205 31.2183 45.9467 31.2092 45.5993 29.6229L45.5078 29.1794C44.8885 26.3621 43.445 23.7928 41.361 21.7984C39.277 19.8039 36.6468 18.4791 33.805 17.984Z" stroke="white" stroke-width="4.57143" stroke-linecap="round" stroke-linejoin="round"/>
</g>
<defs>
<clipPath id="clip0_676_1281">
<rect width="64" height="64" fill="white"/>
</clipPath>
</defs>
</svg>
