<svg width="64" height="64" viewBox="0 0 64 64" fill="none" xmlns="http://www.w3.org/2000/svg">
<path d="M12 42V40H8V42C8 45.713 9.475 49.274 12.1005 51.8995C14.726 54.525 18.287 56 22 56H28V52H22C19.3478 52 16.8043 50.9464 14.9289 49.0711C13.0536 47.1957 12 44.6522 12 42ZM48 22V24H52V22C52 18.287 50.525 14.726 47.8995 12.1005C45.274 9.475 41.713 8 38 8H32V12H38C39.3132 12 40.6136 12.2587 41.8268 12.7612C43.0401 13.2638 44.1425 14.0003 45.0711 14.9289C45.9997 15.8575 46.7362 16.9599 47.2388 18.1732C47.7413 19.3864 48 20.6868 48 22ZM22 22H10C8.4087 22 6.88258 22.6321 5.75736 23.7574C4.63214 24.8826 4 26.4087 4 28V32H8V28C8 27.4696 8.21071 26.9609 8.58579 26.5858C8.96086 26.2107 9.46957 26 10 26H22C22.5304 26 23.0391 26.2107 23.4142 26.5858C23.7893 26.9609 24 27.4696 24 28V32H28V28C28 26.4087 27.3679 24.8826 26.2426 23.7574C25.1174 22.6321 23.5913 22 22 22ZM16 20C17.5823 20 19.129 19.5308 20.4446 18.6518C21.7602 17.7727 22.7855 16.5233 23.391 15.0615C23.9965 13.5997 24.155 11.9911 23.8463 10.4393C23.5376 8.88743 22.7757 7.46197 21.6569 6.34315C20.538 5.22433 19.1126 4.4624 17.5607 4.15372C16.0089 3.84504 14.4003 4.00347 12.9385 4.60897C11.4767 5.21447 10.2273 6.23985 9.34824 7.55544C8.46919 8.87103 8 10.4178 8 12C8 14.1217 8.84285 16.1566 10.3431 17.6569C11.8434 19.1571 13.8783 20 16 20ZM16 8C16.7911 8 17.5645 8.2346 18.2223 8.67413C18.8801 9.11365 19.3928 9.73836 19.6955 10.4693C19.9983 11.2002 20.0775 12.0044 19.9231 12.7804C19.7688 13.5563 19.3878 14.269 18.8284 14.8284C18.269 15.3878 17.5563 15.7688 16.7804 15.9231C16.0044 16.0775 15.2002 15.9983 14.4693 15.6955C13.7384 15.3928 13.1136 14.8801 12.6741 14.2223C12.2346 13.5645 12 12.7911 12 12C12 10.9391 12.4214 9.92172 13.1716 9.17158C13.9217 8.42143 14.9391 8 16 8ZM54 50H42C40.4087 50 38.8826 50.6321 37.7574 51.7574C36.6321 52.8826 36 54.4087 36 56V60H40V56C40 55.4696 40.2107 54.9609 40.5858 54.5858C40.9609 54.2107 41.4696 54 42 54H54C54.5304 54 55.0391 54.2107 55.4142 54.5858C55.7893 54.9609 56 55.4696 56 56V60H60V56C60 54.4087 59.3679 52.8826 58.2426 51.7574C57.1174 50.6321 55.5913 50 54 50ZM40 40C40 41.5823 40.4692 43.129 41.3482 44.4446C42.2273 45.7602 43.4767 46.7855 44.9385 47.391C46.4003 47.9965 48.0089 48.155 49.5607 47.8463C51.1126 47.5376 52.538 46.7757 53.6569 45.6569C54.7757 44.538 55.5376 43.1126 55.8463 41.5607C56.155 40.0089 55.9965 38.4003 55.391 36.9385C54.7855 35.4767 53.7602 34.2273 52.4446 33.3482C51.129 32.4692 49.5822 32 48 32C45.8783 32 43.8434 32.8429 42.3431 34.3432C40.8429 35.8434 40 37.8783 40 40ZM52 40C52 40.7911 51.7654 41.5645 51.3259 42.2223C50.8864 42.8801 50.2616 43.3928 49.5307 43.6955C48.7998 43.9983 47.9956 44.0775 47.2196 43.9231C46.4437 43.7688 45.731 43.3878 45.1716 42.8284C44.6122 42.269 44.2312 41.5563 44.0769 40.7804C43.9225 40.0044 44.0017 39.2002 44.3045 38.4693C44.6072 37.7384 45.1199 37.1137 45.7777 36.6741C46.4355 36.2346 47.2089 36 48 36C49.0609 36 50.0783 36.4214 50.8284 37.1716C51.5786 37.9217 52 38.9391 52 40Z" fill="white"/>
</svg>
