<svg width="64" height="64" viewBox="0 0 64 64" fill="none" xmlns="http://www.w3.org/2000/svg">
<path d="M53.3337 38.6667V17.3334C53.3337 12.304 53.3337 9.79202 51.771 8.22935C50.2083 6.66669 47.6963 6.66669 42.667 6.66669H21.3337C16.3043 6.66669 13.7923 6.66669 12.2297 8.22935C10.667 9.79202 10.667 12.304 10.667 17.3334V38.6667" stroke="white" stroke-width="4" stroke-linecap="round" stroke-linejoin="round"/>
<path d="M21.3335 22.384H21.7655C23.9281 22.384 25.0108 22.384 25.8375 22.848C26.6641 23.312 27.0321 24.128 27.7761 25.7627L28.6721 27.736C29.1601 28.8133 29.4055 29.3493 29.8001 29.3333C30.1948 29.3173 30.3655 28.7627 30.7095 27.6533L33.7948 17.7253C34.1495 16.584 34.3281 16.0133 34.7255 16C35.1228 15.9867 35.3628 16.5413 35.8375 17.6533L36.3788 18.9147C37.0988 20.5893 37.4561 21.4267 38.2908 21.904C39.1255 22.3813 40.2268 22.384 42.4295 22.384H42.6668M9.32813 41.3733L10.7201 38.6667H53.2055L54.6721 41.3733C58.5201 48.472 59.4801 52.0213 58.0161 54.6773C56.5521 57.3333 52.6775 57.3333 44.9228 57.3333H19.0775C11.3201 57.3333 7.44279 57.3333 5.98146 54.6773C4.51746 52.0213 5.47746 48.472 9.32813 41.3733Z" stroke="white" stroke-width="4" stroke-linecap="round" stroke-linejoin="round"/>
</svg>
