<svg width="64" height="64" viewBox="0 0 64 64" fill="none" xmlns="http://www.w3.org/2000/svg">
<path d="M21.3333 8H10.6667C9.95942 8 9.28115 8.28095 8.78105 8.78105C8.28095 9.28115 8 9.95942 8 10.6667V21.3333M21.3333 56H10.6667C9.95942 56 9.28115 55.7191 8.78105 55.219C8.28095 54.7189 8 54.0406 8 53.3333V42.6667M42.6667 56H53.3333C54.0406 56 54.7189 55.7191 55.219 55.219C55.7191 54.7189 56 54.0406 56 53.3333V42.6667M42.6667 8H53.3333C54.0406 8 54.7189 8.28095 55.219 8.78105C55.7191 9.28115 56 9.95942 56 10.6667V21.3333" stroke="white" stroke-width="5.33333" stroke-linecap="round" stroke-linejoin="round"/>
<path d="M32.0002 41.3333C33.2258 41.3333 34.4395 41.0919 35.5719 40.6229C36.7042 40.1538 37.7331 39.4663 38.5998 38.5996C39.4665 37.733 40.154 36.7041 40.623 35.5717C41.0921 34.4393 41.3335 33.2257 41.3335 32M32.0002 41.3333C29.5248 41.3333 27.1508 40.35 25.4005 38.5996C23.6502 36.8493 22.6668 34.4753 22.6668 32M32.0002 41.3333V46.6666M41.3335 32C41.3335 30.7743 41.0921 29.5606 40.623 28.4283C40.154 27.2959 39.4665 26.267 38.5998 25.4003C37.7331 24.5336 36.7042 23.8461 35.5719 23.3771C34.4395 22.9081 33.2258 22.6666 32.0002 22.6666M41.3335 32H46.6668M32.0002 22.6666C29.5248 22.6666 27.1508 23.65 25.4005 25.4003C23.6502 27.1507 22.6668 29.5246 22.6668 32M32.0002 22.6666V17.3333M22.6668 32H17.3335" stroke="white" stroke-width="5.33333" stroke-miterlimit="10" stroke-linecap="round" stroke-linejoin="round"/>
<path d="M32.0002 34.6666C32.7074 34.6666 33.3857 34.3857 33.8858 33.8856C34.3859 33.3855 34.6668 32.7072 34.6668 32C34.6668 31.2927 34.3859 30.6145 33.8858 30.1144C33.3857 29.6143 32.7074 29.3333 32.0002 29.3333C31.2929 29.3333 30.6146 29.6143 30.1145 30.1144C29.6144 30.6145 29.3335 31.2927 29.3335 32C29.3335 32.7072 29.6144 33.3855 30.1145 33.8856C30.6146 34.3857 31.2929 34.6666 32.0002 34.6666Z" fill="white"/>
</svg>
