<svg width="64" height="64" viewBox="0 0 64 64" fill="none" xmlns="http://www.w3.org/2000/svg">
<path d="M21.3334 32H21.3574M31.9867 32H32.0134M42.6427 32H42.6667M48 56C51.2854 56 53.9494 52.9307 53.9494 49.144C53.9494 43.1493 53.6827 39.1653 57.7947 34.424C58.9574 33.0853 58.9574 30.9147 57.7947 29.576C53.6827 24.8373 53.9494 20.8507 53.9494 14.856C53.9494 11.0693 51.2854 8 48 8M16 56C12.7147 56 10.0507 52.9307 10.0507 49.144C10.0507 43.1493 10.3174 39.1653 6.20537 34.424C5.04271 33.0853 5.04271 30.9147 6.20537 29.576C10.2267 24.9413 10.0507 20.9067 10.0507 14.8533C10.0507 11.0693 12.7147 8 16 8" stroke="white" stroke-width="4" stroke-linecap="round" stroke-linejoin="round"/>
</svg>
