<svg width="64" height="64" viewBox="0 0 64 64" fill="none" xmlns="http://www.w3.org/2000/svg">
<g clip-path="url(#clip0_621_2647)">
<path d="M58.6667 3.55554H39.2889C38.8174 3.55554 38.3652 3.74284 38.0318 4.07624C37.6984 4.40964 37.5111 4.86182 37.5111 5.33332C37.5111 5.80482 37.6984 6.257 38.0318 6.5904C38.3652 6.9238 38.8174 7.1111 39.2889 7.1111H54.4533L38.7733 23.1111C38.6099 23.278 38.481 23.4755 38.3939 23.6923C38.3068 23.909 38.2632 24.1408 38.2657 24.3744C38.2682 24.608 38.3166 24.8388 38.4083 25.0537C38.5 25.2685 38.6331 25.4632 38.8 25.6267C38.9669 25.7901 39.1644 25.919 39.3812 26.0061C39.5979 26.0932 39.8297 26.1368 40.0633 26.1343C40.2969 26.1318 40.5277 26.0834 40.7426 25.9917C40.9574 25.9 41.1521 25.7669 41.3156 25.6L56.8889 9.70665V24.7111C56.8889 25.1826 57.0762 25.6348 57.4096 25.9682C57.743 26.3016 58.1952 26.4889 58.6667 26.4889C59.1382 26.4889 59.5903 26.3016 59.9237 25.9682C60.2571 25.6348 60.4444 25.1826 60.4444 24.7111V5.33332C60.4444 4.86182 60.2571 4.40964 59.9237 4.07624C59.5903 3.74284 59.1382 3.55554 58.6667 3.55554Z" fill="white"/>
<path d="M20.5156 19.0755L4.51561 28.2667C4.24432 28.4233 4.01922 28.6488 3.86313 28.9204C3.70703 29.192 3.62548 29.5001 3.62672 29.8133V49.3689C3.62548 49.6821 3.70703 49.9902 3.86313 50.2618C4.01922 50.5334 4.24432 50.7589 4.51561 50.9155L20.5156 60.0711C20.7859 60.2271 21.0924 60.3093 21.4045 60.3093C21.7166 60.3093 22.0231 60.2271 22.2934 60.0711L38.2934 50.9155C38.5647 50.7589 38.7898 50.5334 38.9459 50.2618C39.102 49.9902 39.1835 49.6821 39.1823 49.3689V29.8133C39.1835 29.5001 39.102 29.192 38.9459 28.9204C38.7898 28.6488 38.5647 28.4233 38.2934 28.2667L22.2934 19.0755C22.0231 18.9195 21.7166 18.8374 21.4045 18.8374C21.0924 18.8374 20.7859 18.9195 20.5156 19.0755ZM19.5556 55.2533L7.11117 48.1422V32.7822L19.5556 39.8933V55.2533ZM21.3334 37.3333L8.55117 29.9911L21.3334 22.72L34.1512 30.0444L21.3334 37.3333ZM35.5556 48.16L23.1112 55.2711V39.8933L35.5556 32.7822V48.16Z" fill="white"/>
</g>
<defs>
<clipPath id="clip0_621_2647">
<rect width="64" height="64" fill="white"/>
</clipPath>
</defs>
</svg>
