<svg width="64" height="64" viewBox="0 0 64 64" fill="none" xmlns="http://www.w3.org/2000/svg">
<path d="M39.3869 33.0667C39.7869 33.2533 40.2403 33.3333 40.6669 33.3333C41.5469 33.3333 42.3736 32.9867 43.0136 32.3733L48.8269 26.6667H51.3336C55.3869 26.6667 58.6669 23.3867 58.6669 19.3333V12.6667C58.6669 8.61334 55.3869 5.33334 51.3336 5.33334H39.3336C35.2803 5.33334 32.0003 8.61334 32.0003 12.6667V19.3333C32.0003 22.6933 34.2669 25.52 37.3336 26.4V30C37.3336 31.3333 38.1603 32.5333 39.3869 33.0667ZM36.0003 12.6667C36.0003 10.8267 37.4936 9.33334 39.3336 9.33334H51.3336C53.1736 9.33334 54.6669 10.8267 54.6669 12.6667V19.3333C54.6669 21.1733 53.1736 22.6667 51.3336 22.6667H47.1736L41.3336 28.4V22.6667H39.3336C37.4936 22.6667 36.0003 21.1733 36.0003 19.3333V12.6667ZM21.3336 36C16.1869 36 12.0003 31.8133 12.0003 26.6667C12.0003 21.52 16.1869 17.3333 21.3336 17.3333C26.4803 17.3333 30.6669 21.52 30.6669 26.6667C30.6669 31.8133 26.4803 36 21.3336 36ZM21.3336 21.3333C18.4003 21.3333 16.0003 23.7333 16.0003 26.6667C16.0003 29.6 18.4003 32 21.3336 32C24.2669 32 26.6669 29.6 26.6669 26.6667C26.6669 23.7333 24.2669 21.3333 21.3336 21.3333ZM21.3336 58.6667C15.8403 58.6667 11.6269 57.1733 8.80028 54.2133C5.23761 50.4693 5.32561 45.7493 5.33361 45.2613V45.2267C5.33361 42.3733 7.73361 40 10.6669 40H32.0003C34.9336 40 37.3336 42.4 37.3336 45.3333L37.3363 45.3493C37.3443 45.688 37.4563 50.4427 33.8696 54.2133C31.0403 57.1733 26.8269 58.6667 21.3336 58.6667ZM10.6669 44C9.92028 44 9.33361 44.5867 9.33361 45.3333V45.3467C9.33361 45.6 9.28828 48.9413 11.7336 51.4933C13.7603 53.6 16.9869 54.6667 21.3336 54.6667C25.6803 54.6667 28.9336 53.5733 30.9603 51.44C33.3949 48.9013 33.3389 45.5947 33.3336 45.4187V45.4133C33.3336 44.5867 32.7203 43.9733 32.0003 43.9733H10.6669V44Z" fill="white"/>
</svg>
