<svg width="64" height="64" viewBox="0 0 64 64" fill="none" xmlns="http://www.w3.org/2000/svg">
<g clip-path="url(#clip0_678_1022)">
<path d="M62.904 59.3627L57.2987 53.76C58.4795 51.9575 59.2037 49.8946 59.4088 47.7495C59.614 45.6045 59.2938 43.4417 58.476 41.4481C57.6582 39.4544 56.3674 37.6898 54.7151 36.3067C53.0627 34.9235 51.0985 33.9635 48.992 33.5093L48.904 33.4933V22.6427C48.9067 22.0131 48.6866 21.4029 48.2827 20.92L48.2853 20.9253V20.912L48.1253 20.736L48.104 20.712L48.032 20.64L28.192 0.799999L28.0187 0.642665L27.9493 0.594665L27.816 0.493332L27.7493 0.445332L27.6053 0.354665L27.544 0.322665C27.4836 0.28711 27.4169 0.254221 27.344 0.223998L27.2587 0.189332L27.1227 0.141332L27.0267 0.111998L26.872 0.0719985L26.7973 0.0559985L26.568 0.0213318H2.70667C1.99127 0.0248167 1.30605 0.310007 0.799435 0.815125C0.292819 1.32024 0.00560253 2.00462 0 2.72L0 57.0587C0.0006959 57.7773 0.285747 58.4664 0.79289 58.9756C1.30003 59.4847 1.98805 59.7725 2.70667 59.776H46.2C48.8008 59.7844 51.3449 59.0166 53.5067 57.5707L53.4587 57.6L59.064 63.2053C59.5808 63.6755 60.2588 63.9285 60.9572 63.9119C61.6557 63.8953 62.3209 63.6103 62.8147 63.1161C63.3085 62.6219 63.5931 61.9565 63.6092 61.2581C63.6253 60.5596 63.3718 59.8818 62.9013 59.3653L62.904 59.368V59.3627ZM54.0373 46.4907C54.0375 47.5215 53.8347 48.5422 53.4403 49.4946C53.046 50.447 52.468 51.3124 51.7393 52.0414C51.0105 52.7704 50.1453 53.3487 49.193 53.7433C48.2408 54.138 47.2201 54.3412 46.1893 54.3413C45.1585 54.3415 44.1378 54.1387 43.1854 53.7444C42.233 53.35 41.3676 52.772 40.6386 52.0433C39.9096 51.3145 39.3313 50.4493 38.9367 49.497C38.542 48.5448 38.3388 47.5241 38.3387 46.4933C38.338 44.4116 39.1643 42.4148 40.6358 40.9422C42.1073 39.4697 44.1036 38.642 46.1853 38.6413C48.2671 38.6406 50.2639 39.4669 51.7364 40.9385C53.209 42.41 54.0366 44.4089 54.0373 46.4907ZM28.9813 9.27467L39.6293 19.9253H28.9813V9.27467ZM5.43467 5.43467H23.5493V22.6427C23.5493 24.144 24.7653 25.36 26.2667 25.36H43.4747V33.4933C37.4 34.792 32.9093 40.1147 32.9093 46.488C32.9093 49.4453 33.8747 52.176 35.5093 54.3813L35.4827 54.3467H5.432L5.43467 5.43467Z" fill="white"/>
</g>
<defs>
<clipPath id="clip0_678_1022">
<rect width="64" height="64" fill="white"/>
</clipPath>
</defs>
</svg>
