<svg width="65" height="64" viewBox="0 0 65 64" fill="none" xmlns="http://www.w3.org/2000/svg">
<path d="M24.2861 22H28.2861V34H24.2861V22ZM14.2861 26H18.2861V34H14.2861V26ZM4.28613 14H8.28613V34H4.28613V14Z" fill="white"/>
<path d="M60.2865 57.172L45.1825 42.068C48.483 38.1235 50.2899 33.1432 50.2865 28C50.2865 15.87 40.4165 6 28.2865 6C23.4805 6 18.9165 7.52 15.0845 10.4L17.4845 13.6C20.5953 11.2523 24.3893 9.98791 28.2865 10C38.2125 10 46.2865 18.074 46.2865 28C46.2865 37.926 38.2125 46 28.2865 46C25.4902 46.011 22.7304 45.3652 20.2292 44.1146C17.7281 42.864 15.5555 41.0436 13.8865 38.8L10.6865 41.204C12.7275 43.9449 15.3831 46.1685 18.4399 47.6962C21.4967 49.2239 24.8693 50.013 28.2865 50C33.6325 50 38.5385 48.08 42.3545 44.896L57.4585 60L60.2865 57.172Z" fill="white"/>
</svg>
