<svg width="64" height="64" viewBox="0 0 64 64" fill="none" xmlns="http://www.w3.org/2000/svg">
<path d="M41.3333 37.3333L54.6667 50.6667L50.6667 54.6667L37.3333 41.3333V39.2267L36.6133 38.48C33.4775 41.1839 29.4739 42.6698 25.3333 42.6667C20.7362 42.6667 16.3274 40.8405 13.0768 37.5899C9.82618 34.3392 8 29.9304 8 25.3333C8 20.7362 9.82618 16.3274 13.0768 13.0768C16.3274 9.82618 20.7362 8 25.3333 8C29.9304 8 34.3392 9.82618 37.5899 13.0768C40.8405 16.3274 42.6667 20.7362 42.6667 25.3333C42.6667 29.6267 41.0933 33.5733 38.48 36.6133L39.2267 37.3333H41.3333ZM25.3333 12L23.8667 12.08C23.2267 13.4667 22.24 15.8133 21.52 18.6667H29.1467C28.4267 15.8133 27.44 13.4667 26.8 12.08C26.32 12 25.84 12 25.3333 12ZM36.88 18.6667C35.2947 15.8918 32.7548 13.7878 29.7333 12.7467C30.3733 14.16 31.2 16.2133 31.8133 18.6667H36.88ZM13.7867 18.6667H18.8533C19.4667 16.2133 20.2933 14.16 20.9333 12.7467C17.9119 13.7878 15.3719 15.8918 13.7867 18.6667ZM12 25.3333C12 26.6667 12.2133 28.08 12.6133 29.3333H18.32L18 25.3333L18.32 21.3333H12.6133C12.2133 22.5867 12 24 12 25.3333ZM38.0533 29.3333C38.4533 28.08 38.6667 26.6667 38.6667 25.3333C38.6667 24 38.4533 22.5867 38.0533 21.3333H32.3467C32.7704 23.9832 32.7704 26.6835 32.3467 29.3333H38.0533ZM20.9867 21.3333L20.6667 25.3333L20.9867 29.3333H29.68C30.1037 26.6835 30.1037 23.9832 29.68 21.3333H20.9867ZM25.3333 38.6667C25.8133 38.6667 26.2933 38.6667 26.7467 38.5867C27.4133 37.2 28.4267 34.8533 29.1467 32H21.52C22.24 34.8533 23.2533 37.2 23.92 38.5867L25.3333 38.6667ZM36.88 32H31.8133C31.2 34.4533 30.3733 36.5067 29.7333 37.92C32.7548 36.8789 35.2947 34.7749 36.88 32ZM13.7867 32C15.3719 34.7749 17.9119 36.8789 20.9333 37.92C20.2933 36.5067 19.4667 34.4533 18.8533 32H13.7867Z" fill="white"/>
</svg>
