<svg width="64" height="64" viewBox="0 0 64 64" fill="none" xmlns="http://www.w3.org/2000/svg">
<path d="M54.6663 10.6667H9.33301C7.12387 10.6667 5.33301 12.4575 5.33301 14.6667V49.3333C5.33301 51.5425 7.12387 53.3333 9.33301 53.3333H54.6663C56.8755 53.3333 58.6663 51.5425 58.6663 49.3333V14.6667C58.6663 12.4575 56.8755 10.6667 54.6663 10.6667Z" stroke="white" stroke-width="5.33333" stroke-linejoin="round"/>
<path d="M5.33301 14.6667C5.33301 13.6058 5.75444 12.5884 6.50458 11.8382C7.25473 11.0881 8.27214 10.6667 9.33301 10.6667H54.6663C55.7272 10.6667 56.7446 11.0881 57.4948 11.8382C58.2449 12.5884 58.6663 13.6058 58.6663 14.6667V26.6667H5.33301V14.6667Z" stroke="white" stroke-width="5.33333"/>
<path d="M10.6667 18.6666C10.6667 17.1939 11.8606 16 13.3333 16C14.8061 16 16 17.1939 16 18.6666C16 20.1394 14.8061 21.3333 13.3333 21.3333C11.8606 21.3333 10.6667 20.1394 10.6667 18.6666Z" fill="white"/>
<path d="M18.6667 18.6666C18.6667 17.1939 19.8606 16 21.3333 16C22.8061 16 24 17.1939 24 18.6666C24 20.1394 22.8061 21.3333 21.3333 21.3333C19.8606 21.3333 18.6667 20.1394 18.6667 18.6666Z" fill="white"/>
</svg>
