<svg width="64" height="64" viewBox="0 0 64 64" fill="none" xmlns="http://www.w3.org/2000/svg">
<path d="M60 48V44H55.798C55.5385 42.7485 55.0416 41.5584 54.334 40.494L57.314 37.514L54.486 34.686L51.506 37.666C50.4416 36.9584 49.2515 36.4615 48 36.202V32H44V36.202C42.7485 36.4615 41.5584 36.9584 40.494 37.666L37.514 34.686L34.686 37.514L37.666 40.494C36.9584 41.5584 36.4615 42.7485 36.202 44H32V48H36.202C36.4615 49.2515 36.9584 50.4416 37.666 51.506L34.686 54.486L37.514 57.314L40.494 54.334C41.5584 55.0416 42.7485 55.5385 44 55.798V60H48V55.798C49.2515 55.5385 50.4416 55.0416 51.506 54.334L54.486 57.314L57.314 54.486L54.334 51.506C55.0416 50.4416 55.5385 49.2515 55.798 48H60ZM46 52C44.8133 52 43.6533 51.6481 42.6666 50.9888C41.6799 50.3295 40.9108 49.3925 40.4567 48.2961C40.0026 47.1997 39.8838 45.9933 40.1153 44.8295C40.3468 43.6656 40.9182 42.5965 41.7574 41.7574C42.5965 40.9182 43.6656 40.3468 44.8295 40.1153C45.9933 39.8838 47.1997 40.0026 48.2961 40.4567C49.3925 40.9108 50.3295 41.6799 50.9888 42.6666C51.6481 43.6533 52 44.8133 52 46C51.9984 47.5908 51.3658 49.116 50.2409 50.2409C49.116 51.3658 47.5908 51.9984 46 52Z" fill="white"/>
<path d="M56 8H8C6.93913 8 5.92172 8.42143 5.17157 9.17157C4.42143 9.92172 4 10.9391 4 12V52C4 53.0609 4.42143 54.0783 5.17157 54.8284C5.92172 55.5786 6.93913 56 8 56H28V52H8V24H56V30H60V12C60 10.9391 59.5786 9.92172 58.8284 9.17157C58.0783 8.42143 57.0609 8 56 8ZM56 20H8V12H56V20Z" fill="white"/>
<path d="M40 18C41.1046 18 42 17.1046 42 16C42 14.8954 41.1046 14 40 14C38.8954 14 38 14.8954 38 16C38 17.1046 38.8954 18 40 18Z" fill="white"/>
<path d="M46 18C47.1046 18 48 17.1046 48 16C48 14.8954 47.1046 14 46 14C44.8954 14 44 14.8954 44 16C44 17.1046 44.8954 18 46 18Z" fill="white"/>
<path d="M52 18C53.1046 18 54 17.1046 54 16C54 14.8954 53.1046 14 52 14C50.8954 14 50 14.8954 50 16C50 17.1046 50.8954 18 52 18Z" fill="white"/>
</svg>
