<svg width="64" height="64" viewBox="0 0 64 64" fill="none" xmlns="http://www.w3.org/2000/svg">
<g clip-path="url(#clip0_716_1187)">
<path d="M50.6667 8C52.0812 8 53.4377 8.5619 54.4379 9.5621C55.4381 10.5623 56 11.9188 56 13.3333V50.6667C56 52.0812 55.4381 53.4377 54.4379 54.4379C53.4377 55.4381 52.0812 56 50.6667 56H13.3333C11.9188 56 10.5623 55.4381 9.5621 54.4379C8.5619 53.4377 8 52.0812 8 50.6667V13.3333C8 11.9188 8.5619 10.5623 9.5621 9.5621C10.5623 8.5619 11.9188 8 13.3333 8H50.6667ZM50.6667 13.3333H13.3333V50.6667H50.6667V13.3333ZM32.0987 20.6107C32.8213 18.296 35.9387 18.0773 37.032 20.12L37.1707 20.4133L41.8053 32H45.3333C46.013 32.0008 46.6668 32.261 47.161 32.7276C47.6552 33.1942 47.9526 33.8319 47.9925 34.5104C48.0323 35.1889 47.8115 35.857 47.3753 36.3782C46.9391 36.8994 46.3203 37.2344 45.6453 37.3147L45.3333 37.3333H40.0187C39.5357 37.3336 39.0616 37.2041 38.646 36.9582C38.2303 36.7124 37.8884 36.3593 37.656 35.936L37.5173 35.6427L34.976 29.2853L30.5653 43.4C29.8747 45.608 26.952 45.9413 25.7467 44.08L25.5867 43.8L22.3493 37.3333H18.6667C17.987 37.3326 17.3332 37.0723 16.839 36.6057C16.3448 36.1392 16.0474 35.5015 16.0075 34.8229C15.9677 34.1444 16.1885 33.4763 16.6247 32.9551C17.0609 32.4339 17.6797 32.0989 18.3547 32.0187L18.6667 32H23.984C24.8907 32 25.728 32.4533 26.224 33.1973L26.392 33.4907L27.4267 35.56L32.0987 20.6107Z" fill="white"/>
</g>
<defs>
<clipPath id="clip0_716_1187">
<rect width="64" height="64" fill="white"/>
</clipPath>
</defs>
</svg>
