<svg width="64" height="64" viewBox="0 0 64 64" fill="none" xmlns="http://www.w3.org/2000/svg">
<g clip-path="url(#clip0_716_1164)">
<path fill-rule="evenodd" clip-rule="evenodd" d="M40.0003 53.3333C40.68 53.3341 41.3337 53.5943 41.828 54.0609C42.3222 54.5275 42.6196 55.1652 42.6595 55.8437C42.6993 56.5222 42.4785 57.1903 42.0423 57.7115C41.606 58.2327 40.9872 58.5677 40.3123 58.648L40.0003 58.6666H24.0003C23.3206 58.6659 22.6669 58.4056 22.1727 57.9391C21.6784 57.4725 21.381 56.8348 21.3412 56.1563C21.3014 55.4777 21.5221 54.8096 21.9584 54.2884C22.3946 53.7672 23.0134 53.4323 23.6883 53.352L24.0003 53.3333H40.0003ZM40.0003 5.33331C40.6535 5.3334 41.2839 5.5732 41.772 6.00722C42.2601 6.44125 42.5719 7.03931 42.6483 7.68798L42.667 7.99998V16H48.0003C49.3459 15.9996 50.6418 16.5077 51.6285 17.4226C52.6151 18.3375 53.2194 19.5916 53.3203 20.9333L53.3337 21.3333V34.6666C53.3338 38.8063 51.7295 42.7849 48.8578 45.7666C45.986 48.7482 42.0704 50.5007 37.9337 50.656L37.3337 50.6666H26.667C22.5273 50.6668 18.5487 49.0625 15.5671 46.1907C12.5854 43.319 10.8329 39.4034 10.6777 35.2666L10.667 34.6666V21.3333C10.6666 19.9878 11.1747 18.6918 12.0897 17.7052C13.0046 16.7186 14.2586 16.1142 15.6003 16.0133L16.0003 16H21.3337V7.99998C21.3344 7.3203 21.5947 6.66656 22.0613 6.17233C22.5278 5.6781 23.1655 5.38069 23.844 5.34085C24.5226 5.30102 25.1907 5.52178 25.7119 5.95802C26.2331 6.39426 26.568 7.01306 26.6483 7.68798L26.667 7.99998V16H37.3337V7.99998C37.3337 7.29274 37.6146 6.61446 38.1147 6.11436C38.6148 5.61426 39.2931 5.33331 40.0003 5.33331ZM48.0003 21.3333H16.0003V34.6666C16.0003 37.4033 17.0522 40.0353 18.9383 42.0181C20.8244 44.001 23.4004 45.1832 26.1337 45.32L26.667 45.3333H37.3337C40.0703 45.3333 42.7023 44.2815 44.6852 42.3954C46.668 40.5093 47.8502 37.9332 47.987 35.2L48.0003 34.6666V21.3333Z" fill="white"/>
</g>
<defs>
<clipPath id="clip0_716_1164">
<rect width="64" height="64" fill="white"/>
</clipPath>
</defs>
</svg>
