<svg width="64" height="64" viewBox="0 0 64 64" fill="none" xmlns="http://www.w3.org/2000/svg">
<path d="M29.3333 36V57.3333H8V36H29.3333ZM24 41.3333H13.3333V52H24V41.3333ZM32 5.33331L46.6667 29.3333H17.3333L32 5.33331ZM32 15.6266L26.88 24H37.12L32 15.6266ZM46.6667 34.6666C53.3333 34.6666 58.6667 40 58.6667 46.6666C58.6667 53.3333 53.3333 58.6666 46.6667 58.6666C40 58.6666 34.6667 53.3333 34.6667 46.6666C34.6667 40 40 34.6666 46.6667 34.6666ZM46.6667 40C44.8986 40 43.2029 40.7024 41.9526 41.9526C40.7024 43.2028 40 44.8985 40 46.6666C40 48.4348 40.7024 50.1305 41.9526 51.3807C43.2029 52.6309 44.8986 53.3333 46.6667 53.3333C48.4348 53.3333 50.1305 52.6309 51.3807 51.3807C52.631 50.1305 53.3333 48.4348 53.3333 46.6666C53.3333 44.8985 52.631 43.2028 51.3807 41.9526C50.1305 40.7024 48.4348 40 46.6667 40Z" fill="white"/>
</svg>
