<svg width="48" height="49" viewBox="0 0 48 49" fill="none" xmlns="http://www.w3.org/2000/svg">
<path d="M23.54 6.49992C18.24 6.63992 13.54 9.05992 10.34 12.8199L7.70002 10.1999C7.55903 10.0617 7.38028 9.96833 7.1863 9.93155C6.99233 9.89477 6.79181 9.91623 6.61001 9.99323C6.42821 10.0702 6.27327 10.1993 6.16472 10.3642C6.05616 10.5291 5.99886 10.7225 6.00002 10.9199V19.4999C6.00002 20.0599 6.44002 20.4999 7.00002 20.4999H15.58C16.48 20.4999 16.92 19.4199 16.28 18.7999L13.18 15.6799C15.76 12.5399 19.64 10.4999 24 10.4999C32.64 10.4999 39.48 18.3799 37.72 27.3199C36.64 32.8599 32.1 37.2799 26.56 38.2599C18.96 39.6199 12.2 34.7799 10.46 27.9399C10.22 27.0999 9.42002 26.4999 8.54002 26.4999C7.24002 26.4999 6.26002 27.7199 6.58002 28.9599C8.56002 36.7399 15.6 42.4999 24 42.4999C34.12 42.4999 42.28 34.1599 42 23.9799C41.72 14.2199 33.3 6.25992 23.54 6.49992ZM28 24.4999C28 22.2999 26.2 20.4999 24 20.4999C21.8 20.4999 20 22.2999 20 24.4999C20 26.6999 21.8 28.4999 24 28.4999C26.2 28.4999 28 26.6999 28 24.4999Z" fill="white"/>
</svg>
