<svg width="32" height="32" viewBox="0 0 32 32" fill="none" xmlns="http://www.w3.org/2000/svg">
<path d="M26.5842 10.6666H28.0002C28.7074 10.6666 29.3857 10.9476 29.8858 11.4477C30.3859 11.9478 30.6668 12.626 30.6668 13.3333V18.6666C30.6668 19.3739 30.3859 20.0521 29.8858 20.5522C29.3857 21.0523 28.7074 21.3333 28.0002 21.3333H26.5842C26.2594 23.9111 25.0049 26.2818 23.0561 28.0003C21.1074 29.7188 18.5984 30.6669 16.0002 30.6666V28C18.1219 28 20.1567 27.1571 21.657 25.6568C23.1573 24.1565 24.0002 22.1217 24.0002 19.9999V11.9999C24.0002 9.87822 23.1573 7.84339 21.657 6.34309C20.1567 4.8428 18.1219 3.99995 16.0002 3.99995C13.8784 3.99995 11.8436 4.8428 10.3433 6.34309C8.84302 7.84339 8.00016 9.87822 8.00016 11.9999V21.3333H4.00016C3.29292 21.3333 2.61464 21.0523 2.11454 20.5522C1.61445 20.0521 1.3335 19.3739 1.3335 18.6666V13.3333C1.3335 12.626 1.61445 11.9478 2.11454 11.4477C2.61464 10.9476 3.29292 10.6666 4.00016 10.6666H5.41616C5.74154 8.08914 6.99627 5.71898 8.94493 4.00085C10.8936 2.28272 13.4022 1.33472 16.0002 1.33472C18.5981 1.33472 21.1067 2.28272 23.0554 4.00085C25.0041 5.71898 26.2588 8.08914 26.5842 10.6666ZM4.00016 13.3333V18.6666H5.3335V13.3333H4.00016ZM26.6668 13.3333V18.6666H28.0002V13.3333H26.6668ZM10.3468 21.0466L11.7602 18.7853C13.0309 19.5815 14.5006 20.0025 16.0002 19.9999C17.4997 20.0025 18.9695 19.5815 20.2402 18.7853L21.6535 21.0466C19.9593 22.1083 17.9996 22.6699 16.0002 22.6666C14.0007 22.6699 12.0411 22.1083 10.3468 21.0466Z" fill="#FFC54F"/>
</svg>
