<svg width="31" height="38" viewBox="0 0 31 38" fill="none" xmlns="http://www.w3.org/2000/svg">
<path fill-rule="evenodd" clip-rule="evenodd" d="M8.53662 0.00176954C6.72523 0.000633749 4.96043 0.487344 3.49784 1.39141C2.03525 2.29547 0.950803 3.56994 0.401572 5.03024C-0.147659 6.49053 -0.13316 8.06083 0.44297 9.51368C1.0191 10.9665 2.12695 12.2265 3.60605 13.1111C2.49242 13.7776 1.58421 14.6605 0.957794 15.6856C0.33138 16.7107 0.00507654 17.8481 0.0063228 19.0022C0.0063228 21.4342 1.42908 23.587 3.61023 24.8932C2.41535 25.6087 1.45825 26.5724 0.831023 27.6914C0.203796 28.8105 -0.0724507 30.0473 0.0288642 31.2828C0.130179 32.5184 0.605645 33.711 1.40951 34.7461C2.21338 35.7812 3.3186 36.6238 4.61883 37.1929C5.91906 37.7621 7.37054 38.0385 8.83361 37.9957C10.2967 37.9529 11.7221 37.5922 12.9727 36.9485C14.2234 36.3047 15.2571 35.3995 15.9745 34.3199C16.6919 33.2403 17.0689 32.0227 17.069 30.7842V24.5909C17.9565 25.1992 18.9792 25.6504 20.0767 25.918C21.1742 26.1856 22.324 26.2639 23.458 26.1485C24.5919 26.033 25.6869 25.7261 26.6781 25.2459C27.6692 24.7657 28.5362 24.122 29.2277 23.353C29.9193 22.584 30.4212 21.7054 30.7038 20.7692C30.9864 19.833 31.0439 18.8583 30.8729 17.903C30.7019 16.9476 30.3058 16.031 29.7082 15.2076C29.1106 14.3842 28.3236 13.6707 27.3939 13.1094C28.8731 12.2248 29.9809 10.9648 30.557 9.51192C31.1332 8.05906 31.1477 6.48876 30.5984 5.02847C30.0492 3.56817 28.9648 2.2937 27.5022 1.38964C26.0396 0.485576 24.2748 -0.00113381 22.4634 1.98336e-06L8.53662 0.00176954ZM13.9331 23.5675H8.53662C7.82795 23.5675 7.12621 23.4495 6.47148 23.22C5.81675 22.9906 5.22185 22.6543 4.72074 22.2304C4.21964 21.8064 3.82214 21.3032 3.55094 20.7493C3.27974 20.1954 3.14016 19.6017 3.14016 19.0022C3.14016 18.4026 3.27974 17.809 3.55094 17.2551C3.82214 16.7012 4.21964 16.1979 4.72074 15.7739C5.22185 15.35 5.81675 15.0137 6.47148 14.7843C7.12621 14.5548 7.82795 14.4368 8.53662 14.4368H13.9331V19.0022V23.5675ZM8.53662 11.7855H13.9331V2.65299H8.53662C7.10511 2.65299 5.73223 3.13407 4.72001 3.99042C3.70778 4.84676 3.13911 6.00821 3.13911 7.21926C3.13911 8.43032 3.70778 9.59177 4.72001 10.4481C5.73223 11.3045 7.10511 11.7855 8.53662 11.7855ZM27.8619 7.21838C27.8625 8.42859 27.295 9.58946 26.2843 10.4459C25.2736 11.3023 23.9022 11.7841 22.4717 11.7855H17.0669V2.65299H22.4655C23.1741 2.65299 23.8759 2.77107 24.5306 3.00051C25.1853 3.22994 25.7802 3.56622 26.2813 3.99016C26.7825 4.41409 27.18 4.91738 27.4512 5.47128C27.7223 6.02518 27.8619 6.61884 27.8619 7.21838ZM17.0669 18.9968C17.0686 17.7879 17.637 16.6288 18.6475 15.7739C19.658 14.919 21.0281 14.4382 22.4571 14.4368H22.4696C23.5364 14.4378 24.5789 14.7063 25.4654 15.2084C26.3519 15.7104 27.0426 16.4235 27.4503 17.2575C27.8579 18.0915 27.9643 19.009 27.7558 19.8941C27.5474 20.7792 27.0336 21.5922 26.2792 22.2304C25.5249 22.8685 24.5639 23.3032 23.5177 23.4796C22.4715 23.6559 21.387 23.5659 20.4011 23.221C19.4153 22.8762 18.5724 22.2918 17.979 21.5419C17.3855 20.7919 17.0682 19.91 17.0669 19.0075V18.9968ZM8.53662 26.2188C7.46939 26.2188 6.42612 26.4865 5.53872 26.988C4.65132 27.4896 3.95965 28.2025 3.55114 29.0366C3.14263 29.8708 3.03564 30.7886 3.2437 31.6742C3.45175 32.5597 3.96551 33.3732 4.72001 34.0117C5.47451 34.6503 6.43587 35.0853 7.48254 35.2616C8.52922 35.438 9.6142 35.3478 10.6003 35.0025C11.5864 34.6573 12.4294 34.0724 13.0226 33.3218C13.6158 32.5713 13.9327 31.6888 13.9331 30.7859V26.2188H8.53662Z" fill="white"/>
</svg>
