<svg width="34" height="48" viewBox="0 0 34 48" fill="none" xmlns="http://www.w3.org/2000/svg">
<path fill-rule="evenodd" clip-rule="evenodd" d="M9.6525 0.00223521C7.68918 0.000800525 5.77637 0.615592 4.19111 1.75757C2.60585 2.89954 1.43045 4.5094 0.835154 6.35398C0.239859 8.19857 0.255574 10.1821 0.880024 12.0173C1.50447 13.8525 2.70524 15.444 4.3084 16.5615C3.10136 17.4033 2.11698 18.5185 1.43803 19.8134C0.759075 21.1083 0.405405 22.545 0.406755 24.0027C0.406755 27.0748 1.94884 29.7941 4.31293 31.444C3.01783 32.3478 1.98046 33.5651 1.30062 34.9787C0.62079 36.3922 0.321375 37.9545 0.431187 39.5152C0.541 41.0758 1.05634 42.5824 1.92763 43.8898C2.79892 45.1973 3.99684 46.2617 5.40612 46.9805C6.8154 47.6994 8.38861 48.0486 9.9744 47.9945C11.5602 47.9405 13.1052 47.4849 14.4607 46.6717C15.8162 45.8586 16.9367 44.7151 17.7142 43.3514C18.4918 41.9877 18.9003 40.4497 18.9005 38.8852V31.0622C19.8624 31.8305 20.971 32.4006 22.1605 32.7385C23.35 33.0765 24.5963 33.1755 25.8253 33.0297C27.0544 32.8838 28.2412 32.4961 29.3155 31.8896C30.3897 31.283 31.3295 30.47 32.079 29.4986C32.8285 28.5272 33.3726 27.4173 33.6789 26.2348C33.9852 25.0522 34.0475 23.821 33.8621 22.6143C33.6768 21.4075 33.2475 20.2497 32.5998 19.2096C31.952 18.1695 31.0991 17.2682 30.0914 16.5592C31.6946 15.4418 32.8953 13.8502 33.5198 12.0151C34.1442 10.1799 34.1599 8.19633 33.5647 6.35175C32.9694 4.50717 31.794 2.89731 30.2087 1.75533C28.6234 0.61336 26.7106 -0.00143218 24.7473 2.5053e-06L9.6525 0.00223521ZM15.5016 29.7695H9.6525C8.88439 29.7695 8.1238 29.6204 7.41415 29.3306C6.70451 29.0407 6.05972 28.616 5.51658 28.0805C4.97344 27.545 4.5426 26.9092 4.24866 26.2096C3.95472 25.5099 3.80343 24.76 3.80343 24.0027C3.80343 23.2454 3.95472 22.4955 4.24866 21.7959C4.5426 21.0962 4.97344 20.4605 5.51658 19.925C6.05972 19.3895 6.70451 18.9647 7.41415 18.6749C8.1238 18.3851 8.88439 18.2359 9.6525 18.2359H15.5016V24.0027V29.7695ZM9.6525 14.887H15.5016V3.35114H9.6525C8.10093 3.35114 6.6129 3.95883 5.51578 5.04053C4.41865 6.12222 3.80229 7.58932 3.80229 9.11907C3.80229 10.6488 4.41865 12.1159 5.51578 13.1976C6.6129 14.2793 8.10093 14.887 9.6525 14.887ZM30.5986 9.11795C30.5992 10.6466 29.9842 12.113 28.8887 13.1948C27.7932 14.2766 26.3068 14.8852 24.7564 14.887H18.8982V3.35114H24.7496C25.5177 3.35114 26.2783 3.5003 26.9879 3.79011C27.6976 4.07992 28.3424 4.5047 28.8855 5.0402C29.4286 5.5757 29.8595 6.21143 30.1534 6.91109C30.4473 7.61075 30.5986 8.36064 30.5986 9.11795ZM18.8982 23.996C18.9 22.4689 19.5161 21.0048 20.6114 19.925C21.7066 18.8451 23.1916 18.2377 24.7405 18.2359H24.7541C25.9104 18.2372 27.0403 18.5764 28.0011 19.2106C28.9619 19.8448 29.7106 20.7455 30.1524 21.7989C30.5943 22.8524 30.7096 24.0114 30.4837 25.1294C30.2577 26.2474 29.7008 27.2744 28.8832 28.0805C28.0656 28.8866 27.024 29.4357 25.8901 29.6584C24.7561 29.8811 23.5806 29.7675 22.5121 29.3318C21.4436 28.8962 20.53 28.1581 19.8868 27.2108C19.2436 26.2634 18.8996 25.1494 18.8982 24.0094V23.996ZM9.6525 33.1184C8.49576 33.1184 7.36499 33.4566 6.40316 34.0902C5.44134 34.7237 4.69165 35.6242 4.24888 36.6779C3.80611 37.7315 3.69015 38.8909 3.91565 40.0095C4.14115 41.1281 4.698 42.1556 5.51578 42.9622C6.33356 43.7688 7.37555 44.3182 8.51001 44.541C9.64447 44.7637 10.8205 44.6499 11.8893 44.2137C12.9581 43.7776 13.8717 43.0388 14.5147 42.0907C15.1577 41.1427 15.5011 40.028 15.5016 38.8875V33.1184H9.6525Z" fill="#FF9D00"/>
</svg>
