<svg width="80" height="80" viewBox="0 0 80 80" fill="none" xmlns="http://www.w3.org/2000/svg">
<path fill-rule="evenodd" clip-rule="evenodd" d="M31.6525 16.0022C29.6892 16.0008 27.7764 16.6156 26.1911 17.7576C24.6058 18.8995 23.4304 20.5094 22.8352 22.354C22.2399 24.1986 22.2556 26.1821 22.88 28.0173C23.5045 29.8525 24.7052 31.444 26.3084 32.5615C25.1014 33.4033 24.117 34.5185 23.438 35.8134C22.7591 37.1083 22.4054 38.545 22.4068 40.0027C22.4068 43.0748 23.9488 45.7941 26.3129 47.444C25.0178 48.3478 23.9805 49.5651 23.3006 50.9787C22.6208 52.3922 22.3214 53.9545 22.4312 55.5152C22.541 57.0758 23.0563 58.5824 23.9276 59.8898C24.7989 61.1973 25.9968 62.2617 27.4061 62.9805C28.8154 63.6994 30.3886 64.0486 31.9744 63.9945C33.5602 63.9405 35.1052 63.4849 36.4607 62.6717C37.8162 61.8586 38.9367 60.7151 39.7142 59.3514C40.4918 57.9877 40.9003 56.4497 40.9005 54.8852V47.0622C41.8624 47.8305 42.971 48.4006 44.1605 48.7385C45.35 49.0765 46.5963 49.1755 47.8253 49.0297C49.0544 48.8838 50.2412 48.4961 51.3155 47.8896C52.3897 47.283 53.3295 46.47 54.079 45.4986C54.8285 44.5272 55.3726 43.4173 55.6789 42.2348C55.9852 41.0522 56.0475 39.821 55.8621 38.6143C55.6768 37.4075 55.2475 36.2497 54.5998 35.2096C53.952 34.1695 53.0991 33.2682 52.0914 32.5592C53.6946 31.4418 54.8953 29.8502 55.5198 28.0151C56.1442 26.1799 56.1599 24.1963 55.5647 22.3517C54.9694 20.5072 53.794 18.8973 52.2087 17.7553C50.6234 16.6134 48.7106 15.9986 46.7473 16L31.6525 16.0022ZM37.5016 45.7695H31.6525C30.8844 45.7695 30.1238 45.6204 29.4142 45.3306C28.7045 45.0407 28.0597 44.616 27.5166 44.0805C26.9734 43.545 26.5426 42.9092 26.2487 42.2096C25.9547 41.5099 25.8034 40.76 25.8034 40.0027C25.8034 39.2454 25.9547 38.4955 26.2487 37.7959C26.5426 37.0962 26.9734 36.4605 27.5166 35.925C28.0597 35.3895 28.7045 34.9647 29.4142 34.6749C30.1238 34.3851 30.8844 34.2359 31.6525 34.2359H37.5016V40.0027V45.7695ZM31.6525 30.887H37.5016V19.3511H31.6525C30.1009 19.3511 28.6129 19.9588 27.5158 21.0405C26.4187 22.1222 25.8023 23.5893 25.8023 25.1191C25.8023 26.6488 26.4187 28.1159 27.5158 29.1976C28.6129 30.2793 30.1009 30.887 31.6525 30.887ZM52.5986 25.118C52.5992 26.6466 51.9842 28.113 50.8887 29.1948C49.7932 30.2766 48.3068 30.8852 46.7564 30.887H40.8982V19.3511H46.7496C47.5177 19.3511 48.2783 19.5003 48.9879 19.7901C49.6976 20.0799 50.3424 20.5047 50.8855 21.0402C51.4286 21.5757 51.8595 22.2114 52.1534 22.9111C52.4473 23.6108 52.5986 24.3606 52.5986 25.118ZM40.8982 39.996C40.9 38.4689 41.5161 37.0048 42.6114 35.925C43.7066 34.8451 45.1916 34.2377 46.7405 34.2359H46.7541C47.9104 34.2372 49.0403 34.5764 50.0011 35.2106C50.9619 35.8448 51.7106 36.7455 52.1524 37.7989C52.5943 38.8524 52.7096 40.0114 52.4837 41.1294C52.2577 42.2474 51.7008 43.2744 50.8832 44.0805C50.0656 44.8866 49.024 45.4357 47.8901 45.6584C46.7561 45.8811 45.5806 45.7675 44.5121 45.3318C43.4436 44.8962 42.53 44.1581 41.8868 43.2108C41.2436 42.2634 40.8996 41.1494 40.8982 40.0094V39.996ZM31.6525 49.1184C30.4958 49.1184 29.365 49.4566 28.4032 50.0902C27.4413 50.7237 26.6916 51.6242 26.2489 52.6779C25.8061 53.7315 25.6901 54.8909 25.9157 56.0095C26.1412 57.1281 26.698 58.1556 27.5158 58.9622C28.3336 59.7688 29.3756 60.3182 30.51 60.541C31.6445 60.7637 32.8205 60.6499 33.8893 60.2137C34.9581 59.7776 35.8717 59.0388 36.5147 58.0907C37.1577 57.1427 37.5011 56.028 37.5016 54.8875V49.1184H31.6525Z" fill="#FF9D00"/>
</svg>
