<svg width="32" height="32" viewBox="0 0 32 32" fill="none" xmlns="http://www.w3.org/2000/svg">
<path d="M30.875 3.83515L25.7138 8.70602L30.6509 17.016L30.875 16.7374V3.83515ZM1.125 3.90621V18.0245C1.405 18.0609 1.74144 18.081 2.08094 18.0845C2.82281 18.0923 3.43431 18.0439 3.77781 18.013L7.06875 9.68583L1.125 3.90621ZM25.4471 10.46L25.0071 10.7447C24.9978 10.7508 24.672 10.9532 24.5763 11.0128L23.9135 11.4141L23.9229 11.4197C23.6157 11.6108 23.5304 11.6645 23.1818 11.881C23.0049 11.9908 23.0006 11.9933 22.8328 12.0975C21.5647 11.4158 20.1887 10.8919 18.5829 10.4799C16.5634 11.09 14.4241 11.9729 12.2878 12.8013C13.1747 13.8692 14.1603 14.217 15.1531 14.2294C16.3044 14.2438 17.4813 13.7431 18.2917 13.1823L18.7542 12.8623L19.2184 13.5329L26.4342 18.741L29.2537 16.8668L25.4471 10.46ZM7.90481 10.6312L5.06938 17.8054L6.11 18.6056L8.03469 16.424L8.18888 16.2493L8.42138 16.2348C8.51513 16.229 8.60763 16.2262 8.69888 16.2267C9.33713 16.2308 9.90775 16.3965 10.3357 16.7742C10.6528 17.0537 10.8635 17.4258 10.9858 17.8567L11.1283 17.8478C11.8779 17.801 12.5534 17.9556 13.0426 18.3872C13.5318 18.8189 13.7695 19.4699 13.8164 20.2197L13.8208 20.2872C14.2233 20.3632 14.5836 20.5217 14.8766 20.7802C15.3658 21.2118 15.6034 21.8627 15.6503 22.6125L15.6626 22.8075C15.7026 22.8202 15.7422 22.8339 15.7814 22.8486L15.9084 22.6703L16.2503 22.1905L16.4261 21.9436L16.8843 22.27L20.5985 24.916C21.0025 24.8164 21.2433 24.6613 21.3773 24.4731C21.5114 24.2849 21.5793 24.0063 21.5413 23.5915L17.0876 20.4021L16.6303 20.0746L16.9546 19.6217L17.3715 19.0364L17.8296 19.3628L22.8506 22.9395C23.2546 22.8399 23.4956 22.6848 23.6295 22.4966C23.7635 22.3085 23.8314 22.0306 23.7936 21.6165L18.0187 17.5196L17.5599 17.194L18.2108 16.2765L18.6698 16.602L24.4456 20.6998C24.85 20.6002 25.0911 20.4451 25.2252 20.2568C25.3594 20.0684 25.4272 19.7896 25.3889 19.374L18.4864 14.3921C17.5705 14.9351 16.3988 15.3701 15.1391 15.3544C13.6649 15.336 12.0881 14.6315 10.9281 12.8513C10.8822 12.7809 10.8527 12.7011 10.8417 12.6178C10.8307 12.5345 10.8385 12.4498 10.8645 12.3699C10.8905 12.29 10.9341 12.2169 10.9921 12.1561C11.0501 12.0953 11.1209 12.0482 11.1995 12.0183C12.0129 11.7093 12.8347 11.3827 13.6584 11.0587L7.90494 10.6316L7.90481 10.6312ZM8.71119 17.3575L5.73844 20.7268C5.79638 21.1485 5.92844 21.4107 6.10638 21.5677C6.28431 21.7247 6.56106 21.823 6.98663 21.828L9.95931 18.4587C9.90137 18.037 9.76931 17.7746 9.59138 17.6176C9.41344 17.4606 9.13675 17.3624 8.71113 17.3575L8.71119 17.3575ZM11.4179 18.9706L8.06087 22.7756C8.11875 23.1973 8.25087 23.4596 8.42875 23.6166C8.60687 23.7735 8.88344 23.8718 9.30906 23.8766L12.6661 20.0718C12.6083 19.65 12.4761 19.3878 12.2982 19.2307C12.1202 19.0736 11.8436 18.9754 11.418 18.9705L11.4179 18.9706ZM13.2517 21.3635L10.2792 24.7328C10.3371 25.1545 10.4692 25.4168 10.6471 25.5738C10.8251 25.7308 11.1018 25.829 11.5274 25.834L14.5 22.465C14.4421 22.0431 14.31 21.7808 14.1321 21.6237C13.9541 21.4667 13.6774 21.3685 13.2518 21.3636L13.2517 21.3635ZM14.7956 23.8095L12.3709 26.577C12.4288 26.9995 12.5608 27.2621 12.7389 27.4193C12.9167 27.5761 13.1931 27.6744 13.6181 27.6795L16.0429 24.912C15.985 24.4896 15.8529 24.227 15.6748 24.0697C15.497 23.9128 15.2206 23.8147 14.7956 23.8096L14.7956 23.8095ZM17.0044 24.1089C17.1103 24.3976 17.1715 24.7176 17.1928 25.0584L17.2073 25.2899L16.69 25.8804L18.3603 27.0702C18.7642 26.9706 19.005 26.8155 19.139 26.6273C19.2731 26.4392 19.3411 26.1608 19.3032 25.7465L17.0045 24.109L17.0044 24.1089Z" fill="#FFC54F"/>
</svg>
