<svg width="48" height="49" viewBox="0 0 48 49" fill="none" xmlns="http://www.w3.org/2000/svg">
<path d="M6 39.5H12V45.5H6V39.5ZM21 39.5H27V45.5H21V39.5ZM36 39.5H42V45.5H36V39.5ZM37.5 24.5H25.5V18.5H22.5V24.5H10.5C9.70435 24.5 8.94129 24.8161 8.37868 25.3787C7.81607 25.9413 7.5 26.7044 7.5 27.5V36.5H10.5V27.5H22.5V36.5H25.5V27.5H37.5V36.5H40.5V27.5C40.5 26.7044 40.1839 25.9413 39.6213 25.3787C39.0587 24.8161 38.2957 24.5 37.5 24.5ZM24 15.5C22.8133 15.5 21.6533 15.1481 20.6666 14.4888C19.6799 13.8295 18.9108 12.8925 18.4567 11.7961C18.0026 10.6997 17.8838 9.49335 18.1153 8.32946C18.3468 7.16557 18.9182 6.09648 19.7574 5.25736C20.5965 4.41825 21.6656 3.8468 22.8295 3.61529C23.9933 3.38378 25.1997 3.5026 26.2961 3.95673C27.3925 4.41085 28.3295 5.17989 28.9888 6.16658C29.6481 7.15328 30 8.31331 30 9.5C29.998 11.0907 29.3652 12.6157 28.2404 13.7405C27.1157 14.8652 25.5907 15.498 24 15.5ZM24 6.5C23.4067 6.5 22.8266 6.67595 22.3333 7.00559C21.8399 7.33524 21.4554 7.80377 21.2284 8.35195C21.0013 8.90013 20.9419 9.50333 21.0576 10.0853C21.1734 10.6672 21.4591 11.2018 21.8787 11.6213C22.2982 12.0409 22.8328 12.3266 23.4147 12.4424C23.9967 12.5581 24.5999 12.4987 25.1481 12.2716C25.6962 12.0446 26.1648 11.6601 26.4944 11.1667C26.8241 10.6734 27 10.0933 27 9.5C27 8.70435 26.6839 7.94129 26.1213 7.37868C25.5587 6.81607 24.7956 6.5 24 6.5Z" fill="white"/>
</svg>
