<svg width="48" height="49" viewBox="0 0 48 49" fill="none" xmlns="http://www.w3.org/2000/svg">
<path d="M20.3998 11.3C20.3998 10.3453 20.7791 9.4296 21.4542 8.75446C22.1294 8.07933 23.045 7.70005 23.9998 7.70005C24.9546 7.70005 25.8703 8.07933 26.5454 8.75446C27.2205 9.4296 27.5998 10.3453 27.5998 11.3C27.5998 12.2548 27.2205 13.1705 26.5454 13.8456C25.8703 14.5208 24.9546 14.9 23.9998 14.9C23.045 14.9 22.1294 14.5208 21.4542 13.8456C20.7791 13.1705 20.3998 12.2548 20.3998 11.3ZM23.9998 5.30005C22.4085 5.30005 20.8824 5.93219 19.7572 7.05741C18.6319 8.18263 17.9998 9.70875 17.9998 11.3C17.9998 12.8913 18.6319 14.4175 19.7572 15.5427C20.8824 16.6679 22.4085 17.3 23.9998 17.3C25.5911 17.3 27.1172 16.6679 28.2424 15.5427C29.3677 14.4175 29.9998 12.8913 29.9998 11.3C29.9998 9.70875 29.3677 8.18263 28.2424 7.05741C27.1172 5.93219 25.5911 5.30005 23.9998 5.30005ZM34.7998 12.5C34.7998 11.8635 35.0527 11.2531 35.5028 10.803C35.9528 10.3529 36.5633 10.1 37.1998 10.1C37.8363 10.1 38.4468 10.3529 38.8969 10.803C39.347 11.2531 39.5998 11.8635 39.5998 12.5C39.5998 13.1366 39.347 13.747 38.8969 14.1971C38.4468 14.6472 37.8363 14.9 37.1998 14.9C36.5633 14.9 35.9528 14.6472 35.5028 14.1971C35.0527 13.747 34.7998 13.1366 34.7998 12.5ZM37.1998 7.70005C35.9268 7.70005 34.7059 8.20576 33.8057 9.10594C32.9055 10.0061 32.3998 11.227 32.3998 12.5C32.3998 13.7731 32.9055 14.994 33.8057 15.8942C34.7059 16.7943 35.9268 17.3 37.1998 17.3C38.4728 17.3 39.6937 16.7943 40.5939 15.8942C41.4941 14.994 41.9998 13.7731 41.9998 12.5C41.9998 11.227 41.4941 10.0061 40.5939 9.10594C39.6937 8.20576 38.4728 7.70005 37.1998 7.70005ZM10.7998 10.1C10.1633 10.1 9.55284 10.3529 9.10275 10.803C8.65266 11.2531 8.3998 11.8635 8.3998 12.5C8.3998 13.1366 8.65266 13.747 9.10275 14.1971C9.55284 14.6472 10.1633 14.9 10.7998 14.9C11.4363 14.9 12.0468 14.6472 12.4969 14.1971C12.9469 13.747 13.1998 13.1366 13.1998 12.5C13.1998 11.8635 12.9469 11.2531 12.4969 10.803C12.0468 10.3529 11.4363 10.1 10.7998 10.1ZM5.9998 12.5C5.9998 11.227 6.50552 10.0061 7.40569 9.10594C8.30587 8.20576 9.52677 7.70005 10.7998 7.70005C12.0728 7.70005 13.2937 8.20576 14.1939 9.10594C15.0941 10.0061 15.5998 11.227 15.5998 12.5C15.5998 13.7731 15.0941 14.994 14.1939 15.8942C13.2937 16.7943 12.0728 17.3 10.7998 17.3C9.52677 17.3 8.30587 16.7943 7.40569 15.8942C6.50552 14.994 5.9998 13.7731 5.9998 12.5ZM11.9998 36.5L12.2398 36.4953C12.4046 37.3097 12.6478 38.0896 12.9694 38.8353C11.9513 38.9736 10.9153 38.8925 9.93116 38.5973C8.947 38.3021 8.03742 37.7996 7.26354 37.1237C6.48965 36.4478 5.8694 35.6141 5.44445 34.6786C5.0195 33.7431 4.79969 32.7275 4.7998 31.7001V22.7001C4.7998 21.044 6.1438 19.7 7.7998 19.7H12.9094C12.4288 20.418 12.1283 21.2413 12.0334 22.1H7.7998C7.64067 22.1 7.48806 22.1633 7.37554 22.2758C7.26302 22.3883 7.1998 22.5409 7.1998 22.7001V31.7001C7.1998 32.9731 7.70552 34.194 8.60569 35.0942C9.50587 35.9943 10.7268 36.5 11.9998 36.5ZM40.7998 23.3C42.0028 24.202 42.8234 25.5227 43.099 27.0008L43.1998 27.0201V22.7001C43.1998 21.044 41.8558 19.7 40.1998 19.7H35.0902C35.5606 20.4008 35.8702 21.2192 35.9662 22.1H40.1998C40.3589 22.1 40.5115 22.1633 40.6241 22.2758C40.7366 22.3883 40.7998 22.5409 40.7998 22.7001V23.3ZM37.1998 24.5H32.3998C31.445 24.5 30.5294 24.8793 29.8542 25.5545C29.1791 26.2296 28.7998 27.1453 28.7998 28.1V29.3H27.5998C26.645 29.3001 25.7294 29.6793 25.0542 30.3545C24.3791 31.0296 23.9998 31.9453 23.9998 32.9V36.5H28.7998V35.3001C28.7998 34.9818 28.9262 34.6766 29.1513 34.4515C29.3763 34.2265 29.6815 34.1 29.9998 34.1C30.3181 34.1 30.6233 34.2265 30.8483 34.4515C31.0734 34.6766 31.1998 34.9818 31.1998 35.3001V36.5H38.3998V35.3001C38.3998 34.9818 38.5262 34.6766 38.7513 34.4515C38.9763 34.2265 39.2815 34.1 39.5998 34.1C39.9181 34.1 40.2233 34.2265 40.4483 34.4515C40.6734 34.6766 40.7998 34.9818 40.7998 35.3001V36.5H45.5998V32.9C45.5998 31.9453 45.2205 31.0296 44.5454 30.3545C43.8703 29.6793 42.9546 29.3001 41.9998 29.3H40.7998V28.1C40.7998 27.1453 40.4205 26.2296 39.7454 25.5545C39.0703 24.8793 38.1546 24.5 37.1998 24.5ZM17.3998 22.1C17.2407 22.1 17.0881 22.1633 16.9755 22.2758C16.863 22.3883 16.7998 22.5409 16.7998 22.7001V34.1C16.7998 37.2344 18.8038 39.9033 21.5998 40.8921V42.5C21.5998 42.812 21.623 43.1169 21.6694 43.4145C19.5926 42.8948 17.7491 41.6958 16.4319 40.0081C15.1147 38.3204 14.3995 36.2409 14.3998 34.1V22.7001C14.3998 21.044 15.7438 19.7 17.3998 19.7H30.5998C32.0518 19.7 33.2638 20.732 33.5398 22.1H17.3998ZM31.1998 29.3V28.1C31.1998 27.7818 31.3262 27.4766 31.5513 27.2515C31.7763 27.0265 32.0815 26.9 32.3998 26.9H37.1998C37.5181 26.9 37.8233 27.0265 38.0483 27.2515C38.2734 27.4766 38.3998 27.7818 38.3998 28.1V29.3H31.1998ZM40.7998 38.9001V40.1001C40.7998 40.4183 40.6734 40.7235 40.4483 40.9486C40.2233 41.1736 39.9181 41.3 39.5998 41.3C39.2815 41.3 38.9763 41.1736 38.7513 40.9486C38.5262 40.7235 38.3998 40.4183 38.3998 40.1001V38.9001H31.1998V40.1001C31.1998 40.4183 31.0734 40.7235 30.8483 40.9486C30.6233 41.1736 30.3181 41.3 29.9998 41.3C29.6815 41.3 29.3763 41.1736 29.1513 40.9486C28.9262 40.7235 28.7998 40.4183 28.7998 40.1001V38.9001H23.9998V42.5C23.9998 43.4548 24.3791 44.3705 25.0542 45.0456C25.7294 45.7208 26.645 46.1001 27.5998 46.1001H41.9998C42.9546 46.1001 43.8703 45.7208 44.5454 45.0456C45.2205 44.3705 45.5998 43.4548 45.5998 42.5V38.9001H40.7998Z" fill="white"/>
</svg>
