<svg width="32" height="32" viewBox="0 0 32 32" fill="none" xmlns="http://www.w3.org/2000/svg">
<g clip-path="url(#clip0_248_256)">
<path d="M10.6668 14.6667C12.4349 14.6667 14.1306 13.9643 15.3809 12.7141C16.6311 11.4638 17.3335 9.76815 17.3335 8.00004C17.3335 6.23193 16.6311 4.53624 15.3809 3.286C14.1306 2.03575 12.4349 1.33337 10.6668 1.33337C8.89872 1.33337 7.20303 2.03575 5.95278 3.286C4.70254 4.53624 4.00016 6.23193 4.00016 8.00004C4.00016 9.76815 4.70254 11.4638 5.95278 12.7141C7.20303 13.9643 8.89872 14.6667 10.6668 14.6667ZM10.6668 14.6667C13.3508 14.6667 15.6962 15.68 17.3642 17.364C18.3531 18.3667 19.0929 19.5874 19.5242 20.928M10.6668 14.6667C5.3335 14.6667 1.3335 18.6667 1.3335 24V30.6667H14.6668M16.0002 25.0987L21.5868 29.3334L30.6668 17.3334" stroke="#FFC54F" stroke-width="2"/>
</g>
<defs>
<clipPath id="clip0_248_256">
<rect width="32" height="32" fill="white"/>
</clipPath>
</defs>
</svg>
