<svg width="80" height="80" viewBox="0 0 80 80" fill="none" xmlns="http://www.w3.org/2000/svg">
<path d="M64 55.2727C64 55.7308 63.8177 56.1702 63.4931 56.4941C63.1685 56.818 62.7283 57 62.2692 57H20.7308C20.2717 57 19.8315 56.818 19.5069 56.4941C19.1823 56.1702 19 55.7308 19 55.2727V20.7273C19 20.2692 19.1823 19.8298 19.5069 19.5059C19.8315 19.182 20.2717 19 20.7308 19C21.1898 19 21.63 19.182 21.9546 19.5059C22.2792 19.8298 22.4615 20.2692 22.4615 20.7273V44.1944L33.3524 33.3234C33.5131 33.1628 33.704 33.0354 33.9141 32.9485C34.1243 32.8616 34.3495 32.8168 34.5769 32.8168C34.8044 32.8168 35.0296 32.8616 35.2397 32.9485C35.4498 33.0354 35.6407 33.1628 35.8014 33.3234L41.5 39.0126L52.8993 27.6364H48.4231C47.964 27.6364 47.5238 27.4544 47.1992 27.1305C46.8747 26.8065 46.6923 26.3672 46.6923 25.9091C46.6923 25.451 46.8747 25.0117 47.1992 24.6877C47.5238 24.3638 47.964 24.1818 48.4231 24.1818H57.0769C57.536 24.1818 57.9762 24.3638 58.3008 24.6877C58.6253 25.0117 58.8077 25.451 58.8077 25.9091V34.5455C58.8077 35.0036 58.6253 35.4429 58.3008 35.7668C57.9762 36.0907 57.536 36.2727 57.0769 36.2727C56.6179 36.2727 56.1777 36.0907 55.8531 35.7668C55.5285 35.4429 55.3462 35.0036 55.3462 34.5455V30.0783L42.7245 42.6766C42.5638 42.8372 42.3729 42.9646 42.1628 43.0515C41.9527 43.1384 41.7275 43.1832 41.5 43.1832C41.2726 43.1832 41.0473 43.1384 40.8372 43.0515C40.6271 42.9646 40.4362 42.8372 40.2755 42.6766L34.5769 36.9874L22.4615 49.0783V53.5455H62.2692C62.7283 53.5455 63.1685 53.7274 63.4931 54.0514C63.8177 54.3753 64 54.8146 64 55.2727Z" fill="#FF9D00"/>
</svg>
