<svg width="45" height="38" viewBox="0 0 45 38" fill="none" xmlns="http://www.w3.org/2000/svg">
<path d="M45 36.2727C45 36.7308 44.8177 37.1702 44.4931 37.4941C44.1685 37.818 43.7283 38 43.2692 38H1.73077C1.27174 38 0.831513 37.818 0.506931 37.4941C0.182348 37.1702 0 36.7308 0 36.2727V1.72727C0 1.26917 0.182348 0.829833 0.506931 0.505907C0.831513 0.18198 1.27174 0 1.73077 0C2.1898 0 2.63003 0.18198 2.95461 0.505907C3.27919 0.829833 3.46154 1.26917 3.46154 1.72727V25.1944L14.3524 14.3234C14.5131 14.1628 14.704 14.0354 14.9141 13.9485C15.1243 13.8616 15.3495 13.8168 15.5769 13.8168C15.8044 13.8168 16.0296 13.8616 16.2397 13.9485C16.4498 14.0354 16.6407 14.1628 16.8014 14.3234L22.5 20.0126L33.8993 8.63636H29.4231C28.964 8.63636 28.5238 8.45438 28.1992 8.13046C27.8747 7.80653 27.6923 7.36719 27.6923 6.90909C27.6923 6.45099 27.8747 6.01165 28.1992 5.68773C28.5238 5.3638 28.964 5.18182 29.4231 5.18182H38.0769C38.536 5.18182 38.9762 5.3638 39.3008 5.68773C39.6253 6.01165 39.8077 6.45099 39.8077 6.90909V15.5455C39.8077 16.0036 39.6253 16.4429 39.3008 16.7668C38.9762 17.0907 38.536 17.2727 38.0769 17.2727C37.6179 17.2727 37.1777 17.0907 36.8531 16.7668C36.5285 16.4429 36.3462 16.0036 36.3462 15.5455V11.0783L23.7245 23.6766C23.5638 23.8372 23.3729 23.9646 23.1628 24.0515C22.9527 24.1384 22.7275 24.1832 22.5 24.1832C22.2726 24.1832 22.0473 24.1384 21.8372 24.0515C21.6271 23.9646 21.4362 23.8372 21.2755 23.6766L15.5769 17.9874L3.46154 30.0783V34.5455H43.2692C43.7283 34.5455 44.1685 34.7274 44.4931 35.0514C44.8177 35.3753 45 35.8146 45 36.2727Z" fill="#FF9D00"/>
</svg>
