<svg width="51" height="38" viewBox="0 0 51 38" fill="none" xmlns="http://www.w3.org/2000/svg">
<path d="M50.25 36.2727C50.25 36.7308 50.0494 37.1702 49.6924 37.4941C49.3353 37.818 48.8511 38 48.3462 38H2.65385C2.14891 38 1.66466 37.818 1.30762 37.4941C0.950583 37.1702 0.75 36.7308 0.75 36.2727V1.72727C0.75 1.26917 0.950583 0.829833 1.30762 0.505907C1.66466 0.18198 2.14891 0 2.65385 0C3.15878 0 3.64303 0.18198 4.00007 0.505907C4.35711 0.829833 4.55769 1.26917 4.55769 1.72727V25.1944L16.5376 14.3234C16.7145 14.1628 16.9244 14.0354 17.1556 13.9485C17.3867 13.8616 17.6344 13.8168 17.8846 13.8168C18.1348 13.8168 18.3826 13.8616 18.6137 13.9485C18.8448 14.0354 19.0548 14.1628 19.2316 14.3234L25.5 20.0126L38.0392 8.63636H33.1154C32.6105 8.63636 32.1262 8.45438 31.7692 8.13046C31.4121 7.80653 31.2115 7.36719 31.2115 6.90909C31.2115 6.45099 31.4121 6.01165 31.7692 5.68773C32.1262 5.3638 32.6105 5.18182 33.1154 5.18182H42.6346C43.1395 5.18182 43.6238 5.3638 43.9808 5.68773C44.3379 6.01165 44.5385 6.45099 44.5385 6.90909V15.5455C44.5385 16.0036 44.3379 16.4429 43.9808 16.7668C43.6238 17.0907 43.1395 17.2727 42.6346 17.2727C42.1297 17.2727 41.6454 17.0907 41.2884 16.7668C40.9314 16.4429 40.7308 16.0036 40.7308 15.5455V11.0783L26.847 23.6766C26.6702 23.8372 26.4602 23.9646 26.2291 24.0515C25.9979 24.1384 25.7502 24.1832 25.5 24.1832C25.2498 24.1832 25.0021 24.1384 24.7709 24.0515C24.5398 23.9646 24.3298 23.8372 24.153 23.6766L17.8846 17.9874L4.55769 30.0783V34.5455H48.3462C48.8511 34.5455 49.3353 34.7274 49.6924 35.0514C50.0494 35.3753 50.25 35.8146 50.25 36.2727Z" fill="white"/>
</svg>
