<svg width="18" height="17" viewBox="0 0 18 17" fill="none" xmlns="http://www.w3.org/2000/svg">
<g opacity="0.8" clip-path="url(#clip0_107_271)">
<path d="M16.3562 8.84996L13.0735 7.38088V3.17167C13.072 3.08336 13.0444 2.99734 12.994 2.92385C12.9436 2.85036 12.8726 2.79251 12.7893 2.7572L9.23668 1.16838C9.17433 1.14033 9.10644 1.12579 9.03774 1.12579C8.96903 1.12579 8.90114 1.14033 8.83879 1.16838L5.28616 2.7572C5.20394 2.79419 5.13435 2.85334 5.08566 2.92761C5.03696 3.00189 5.0112 3.08819 5.01142 3.17628V7.38549L1.743 8.84996C1.66078 8.88695 1.59119 8.9461 1.5425 9.02038C1.4938 9.09466 1.46804 9.18095 1.46826 9.26904V13.773C1.46804 13.8611 1.4938 13.9474 1.5425 14.0216C1.59119 14.0959 1.66078 14.1551 1.743 14.1921L5.29563 15.7809C5.35799 15.8089 5.42587 15.8235 5.49458 15.8235C5.56329 15.8235 5.63117 15.8089 5.69353 15.7809L9.04721 14.2796L12.4009 15.7809C12.4632 15.8089 12.5311 15.8235 12.5998 15.8235C12.6685 15.8235 12.7364 15.8089 12.7988 15.7809L16.3514 14.1921C16.4336 14.1551 16.5032 14.0959 16.5519 14.0216C16.6006 13.9474 16.6264 13.8611 16.6262 13.773V9.26904C16.6268 9.18145 16.6017 9.09551 16.5539 9.02128C16.5061 8.94705 16.4375 8.88762 16.3562 8.84996ZM15.0251 9.26904L12.6046 10.3421L10.1841 9.26904L12.6046 8.1868L15.0251 9.26904ZM9.04721 2.08943L11.4677 3.17167L9.04721 4.25391L6.63142 3.17167L9.04721 2.08943ZM5.49458 8.1822L7.91511 9.26443L5.49458 10.3421L3.07405 9.26904L5.49458 8.1822ZM8.57353 13.4736L5.49458 14.8552L2.41563 13.4736V9.98746L5.29563 11.2631C5.3567 11.2898 5.42289 11.3036 5.48984 11.3036C5.55679 11.3036 5.62299 11.2898 5.68405 11.2631L8.56405 9.97364L8.57353 13.4736ZM5.96826 7.38088V3.8947L8.84826 5.18417C8.91062 5.21223 8.9785 5.22676 9.04721 5.22676C9.11592 5.22676 9.1838 5.21223 9.24616 5.18417L12.1262 3.8947V7.38549L9.04721 8.76706L5.96826 7.38088ZM15.6835 13.4782L12.6046 14.8598L9.5209 13.4782V9.98285L12.4056 11.2631C12.466 11.2891 12.5314 11.3026 12.5975 11.3026C12.6636 11.3026 12.7289 11.2891 12.7893 11.2631L15.6693 9.97364L15.6835 13.4782Z" fill="#F8F8F8"/>
</g>
<defs>
<clipPath id="clip0_107_271">
<rect width="17.0526" height="16.5789" fill="white" transform="translate(0.473633 0.21051)"/>
</clipPath>
</defs>
</svg>
