<svg width="49" height="49" viewBox="0 0 49 49" fill="none" xmlns="http://www.w3.org/2000/svg">
<path d="M19.5 25.3L22.358 28.5L29.5 20.5" stroke="white" stroke-width="3" stroke-linecap="round" stroke-linejoin="round"/>
<path d="M6.5 21.334C6.5 14.938 6.5 11.74 7.256 10.664C8.01 9.59 11.016 8.56 17.03 6.502L18.176 6.11C21.31 5.036 22.876 4.5 24.5 4.5C26.124 4.5 27.69 5.036 30.824 6.11L31.97 6.502C37.984 8.56 40.99 9.59 41.744 10.664C42.5 11.74 42.5 14.94 42.5 21.334V24.482C42.5 29.492 40.826 33.356 38.5 36.308M6.886 28.5C8.6 37.096 15.652 41.526 20.298 43.554C21.74 44.184 22.462 44.5 24.5 44.5C26.54 44.5 27.26 44.184 28.702 43.554C29.86 43.05 31.164 42.394 32.5 41.566" stroke="white" stroke-width="3" stroke-linecap="round"/>
</svg>
