<svg width="48" height="48" viewBox="0 0 48 48" fill="none" xmlns="http://www.w3.org/2000/svg">
<g clip-path="url(#clip0_488_1760)">
<path d="M23.8265 -0.0572309C23.7484 -0.0431323 23.6713 -0.0240157 23.5957 -1.19209e-07C23.1789 0.0934184 22.8074 0.328474 22.5445 0.665112C22.2816 1.00175 22.1435 1.41914 22.1538 1.84615V3.69231H5.53846C4.06957 3.69231 2.66084 4.27582 1.62218 5.31449C0.583515 6.35315 0 7.76188 0 9.23077L0 33.2308C0 36.288 2.48123 38.7692 5.53846 38.7692H22.1538V39.4615L12.1145 44.4812C11.6709 44.6954 11.3305 45.0771 11.1683 45.5423C11.0061 46.0074 11.0353 46.5179 11.2495 46.9615C11.4638 47.4051 11.8454 47.7455 12.3106 47.9077C12.7757 48.0699 13.2862 48.0407 13.7298 47.8265L22.1538 43.6154V44.3077C22.1538 44.7973 22.3484 45.2669 22.6946 45.6131C23.0408 45.9593 23.5104 46.1538 24 46.1538C24.4896 46.1538 24.9592 45.9593 25.3054 45.6131C25.6516 45.2669 25.8462 44.7973 25.8462 44.3077V43.6154L34.2702 47.8265C34.7138 48.0407 35.2243 48.0699 35.6894 47.9077C36.1546 47.7455 36.5362 47.4051 36.7505 46.9615C36.9647 46.5179 36.9939 46.0074 36.8317 45.5423C36.6695 45.0771 36.3291 44.6954 35.8855 44.4812L25.8462 39.4615V38.7692H42.4615C45.5188 38.7692 48 36.288 48 33.2308V9.23077C48 7.76188 47.4165 6.35315 46.3778 5.31449C45.3392 4.27582 43.9304 3.69231 42.4615 3.69231H25.8462V1.84615C25.8555 1.58363 25.8087 1.32213 25.7088 1.07914C25.609 0.836154 25.4585 0.617264 25.2673 0.437099C25.0762 0.256933 24.8487 0.119641 24.6003 0.0343945C24.3518 -0.050852 24.088 -0.0820894 23.8265 -0.0572309ZM3.69231 9.23077H44.3077V33.2308H3.69231V9.23077ZM38.5385 11.0769C38.1249 11.1214 37.7385 11.3042 37.4418 11.5957L31.3846 17.6548L27.1735 13.44C26.9719 13.2331 26.7244 13.0764 26.4512 12.9825C26.1779 12.8886 25.8864 12.8602 25.6001 12.8995C25.3139 12.9389 25.0408 13.0448 24.803 13.2089C24.5652 13.373 24.3692 13.5907 24.2308 13.8443L18.7495 23.4222L16.4991 17.7674C16.3898 17.4754 16.2084 17.2159 15.9717 17.013C15.735 16.81 15.4508 16.6704 15.1456 16.607C14.8403 16.5436 14.524 16.5585 14.2261 16.6503C13.9282 16.7422 13.6584 16.908 13.4418 17.1323L7.90338 22.6708C7.72883 22.8452 7.59034 23.0523 7.49582 23.2803C7.40131 23.5082 7.35261 23.7526 7.35253 23.9993C7.35244 24.2461 7.40096 24.4905 7.49532 24.7185C7.58968 24.9465 7.72803 25.1537 7.90246 25.3283C8.0769 25.5029 8.28401 25.6414 8.51196 25.7359C8.73992 25.8304 8.98426 25.8791 9.23104 25.8792C9.47781 25.8792 9.72219 25.8307 9.95021 25.7364C10.1782 25.642 10.3854 25.5037 10.56 25.3292L14.0788 21.8105L16.7335 28.3865C16.8588 28.7163 17.076 29.0033 17.3593 29.2135C17.6427 29.4237 17.9803 29.5483 18.3323 29.5726C18.6843 29.5969 19.0358 29.5198 19.3453 29.3505C19.6548 29.1812 19.9094 28.9267 20.0788 28.6172L26.2523 17.8283L30.0591 21.6369C30.2312 21.815 30.4375 21.9567 30.6655 22.0534C30.8936 22.1501 31.1387 22.2 31.3865 22.2C31.6342 22.2 31.8794 22.1501 32.1074 22.0534C32.3354 21.9567 32.5417 21.815 32.7138 21.6369L40.0985 14.2523C40.3901 13.9823 40.5868 13.6254 40.6594 13.2347C40.732 12.844 40.6765 12.4402 40.5013 12.0835C40.326 11.7268 40.0404 11.4362 39.6867 11.2548C39.3331 11.0735 38.9304 11.0111 38.5385 11.0769Z" fill="white"/>
</g>
<defs>
<clipPath id="clip0_488_1760">
<rect width="48" height="48" fill="white"/>
</clipPath>
</defs>
</svg>
