<svg width="39" height="48" viewBox="0 0 39 48" fill="none" xmlns="http://www.w3.org/2000/svg">
<path fill-rule="evenodd" clip-rule="evenodd" d="M19.5 4.8C18.2071 4.8 16.9671 5.30571 16.0529 6.20589C15.1386 7.10606 14.625 8.32696 14.625 9.6H24.375C24.375 8.32696 23.8614 7.10606 22.9471 6.20589C22.0329 5.30571 20.7929 4.8 19.5 4.8ZM13.0504 2.4C14.7688 0.9072 17.0284 0 19.5 0C21.9716 0 24.2288 0.9072 25.9496 2.4H34.125C35.4179 2.4 36.6579 2.90571 37.5721 3.80589C38.4864 4.70606 39 5.92696 39 7.2V43.2C39 44.473 38.4864 45.6939 37.5721 46.5941C36.6579 47.4943 35.4179 48 34.125 48H4.875C3.58207 48 2.34209 47.4943 1.42785 46.5941C0.513614 45.6939 0 44.473 0 43.2V7.2C0 5.92696 0.513614 4.70606 1.42785 3.80589C2.34209 2.90571 3.58207 2.4 4.875 2.4H13.0504ZM10.0571 7.2H4.875V43.2H34.125V7.2H28.9429C29.1444 7.9696 29.2467 8.7696 29.25 9.6V12C29.25 12.6365 28.9932 13.247 28.5361 13.6971C28.079 14.1471 27.459 14.4 26.8125 14.4H12.1875C11.541 14.4 10.921 14.1471 10.4639 13.6971C10.0068 13.247 9.75 12.6365 9.75 12V9.6C9.75325 8.7696 9.85563 7.9696 10.0571 7.2ZM9.75 21.6C9.75 20.9635 10.0068 20.353 10.4639 19.9029C10.921 19.4529 11.541 19.2 12.1875 19.2H26.8125C27.459 19.2 28.079 19.4529 28.5361 19.9029C28.9932 20.353 29.25 20.9635 29.25 21.6C29.25 22.2365 28.9932 22.847 28.5361 23.2971C28.079 23.7471 27.459 24 26.8125 24H12.1875C11.541 24 10.921 23.7471 10.4639 23.2971C10.0068 22.847 9.75 22.2365 9.75 21.6ZM9.75 31.2C9.75 30.5635 10.0068 29.953 10.4639 29.5029C10.921 29.0529 11.541 28.8 12.1875 28.8H19.5C20.1465 28.8 20.7665 29.0529 21.2236 29.5029C21.6807 29.953 21.9375 30.5635 21.9375 31.2C21.9375 31.8365 21.6807 32.447 21.2236 32.8971C20.7665 33.3471 20.1465 33.6 19.5 33.6H12.1875C11.541 33.6 10.921 33.3471 10.4639 32.8971C10.0068 32.447 9.75 31.8365 9.75 31.2Z" fill="white"/>
</svg>
