<svg width="51" height="50" viewBox="0 0 51 50" fill="none" xmlns="http://www.w3.org/2000/svg">
<path d="M50.5 25C50.5 11.2 39.3 0 25.5 0C11.7 0 0.5 11.2 0.5 25C0.5 38.8 11.7 50 25.5 50C39.3 50 50.5 38.8 50.5 25ZM25.5 2.525C37.925 2.525 47.975 12.575 47.975 25C47.975 37.425 37.925 47.475 25.5 47.475C13.075 47.475 3.025 37.425 3.025 25C3.025 12.575 13.075 2.525 25.5 2.525ZM20.525 37.05L12.9 16.525C14.125 16.45 15.525 16.325 15.525 16.325C16.6 16.2 16.475 13.8 15.375 13.85C15.375 13.85 12.15 14.1 10.05 14.1C9.675 14.1 9.225 14.1 8.75 14.075C12.35 8.65 18.5 5.075 25.5 5.075C30.725 5.075 35.475 7.05 39.025 10.3C37.525 10.1 35.4 11.175 35.4 13.85C35.4 15.5 36.35 16.9 37.375 18.55C38.15 19.9 38.625 21.6 38.625 24.075C38.625 27.425 35.45 35.275 35.45 35.275L28.675 16.525C29.875 16.45 30.55 16.125 30.55 16.125C31.625 16 31.5 13.375 30.425 13.425C30.425 13.425 27.175 13.7 25.075 13.7C23.125 13.7 19.8 13.425 19.8 13.425C18.725 13.375 18.6 16.075 19.675 16.125L21.775 16.325L24.575 23.925L20.525 37.05ZM35.575 42.425L42.1 25C42.1 25 43.775 20.775 43.075 15.475C44.65 18.325 45.425 21.525 45.425 25C45.425 32.4 41.525 38.95 35.575 42.425ZM7.2 16.925L16.75 43.125C10.075 39.875 5.575 32.925 5.575 25C5.575 22.1 6.075 19.425 7.2 16.925ZM25.825 28.25L31.55 43.875C29.675 44.55 27.625 44.925 25.5 44.925C23.7 44.925 21.975 44.65 20.35 44.175L25.825 28.25Z" fill="white"/>
</svg>
