<svg width="90" height="90" viewBox="0 0 90 90" fill="none" xmlns="http://www.w3.org/2000/svg">
<g clip-path="url(#clip0_53_137)">
<rect width="90" height="90" rx="45" fill="white"/>
<path d="M90 45C90 20.16 69.84 0 45 0C20.16 0 0 20.16 0 45C0 69.84 20.16 90 45 90C69.84 90 90 69.84 90 45ZM45 4.545C67.365 4.545 85.455 22.635 85.455 45C85.455 67.365 67.365 85.455 45 85.455C22.635 85.455 4.545 67.365 4.545 45C4.545 22.635 22.635 4.545 45 4.545ZM36.045 66.69L22.32 29.745C24.525 29.61 27.045 29.385 27.045 29.385C28.98 29.16 28.755 24.84 26.775 24.93C26.775 24.93 20.97 25.38 17.19 25.38C16.515 25.38 15.705 25.38 14.85 25.335C21.33 15.57 32.4 9.135 45 9.135C54.405 9.135 62.955 12.69 69.345 18.54C66.645 18.18 62.82 20.115 62.82 24.93C62.82 27.9 64.53 30.42 66.375 33.39C67.77 35.82 68.625 38.88 68.625 43.335C68.625 49.365 62.91 63.495 62.91 63.495L50.715 29.745C52.875 29.61 54.09 29.025 54.09 29.025C56.025 28.8 55.8 24.075 53.865 24.165C53.865 24.165 48.015 24.66 44.235 24.66C40.725 24.66 34.74 24.165 34.74 24.165C32.805 24.075 32.58 28.935 34.515 29.025L38.295 29.385L43.335 43.065L36.045 66.69ZM63.135 76.365L74.88 45C74.88 45 77.895 37.395 76.635 27.855C79.47 32.985 80.865 38.745 80.865 45C80.865 58.32 73.845 70.11 63.135 76.365ZM12.06 30.465L29.25 77.625C17.235 71.775 9.135 59.265 9.135 45C9.135 39.78 10.035 34.965 12.06 30.465ZM45.585 50.85L55.89 78.975C52.515 80.19 48.825 80.865 45 80.865C41.76 80.865 38.655 80.37 35.73 79.515L45.585 50.85Z" fill="#FF9D00"/>
</g>
<defs>
<clipPath id="clip0_53_137">
<rect width="90" height="90" rx="45" fill="white"/>
</clipPath>
</defs>
</svg>
