<svg width="64" height="64" viewBox="0 0 64 64" fill="none" xmlns="http://www.w3.org/2000/svg">
<path d="M63.1276 27.2L56.7501 14.4375C56.5447 14.0263 56.2604 13.6596 55.9133 13.3583C55.5662 13.0569 55.1632 12.8269 54.7272 12.6814C54.2912 12.5358 53.8309 12.4776 53.3724 12.5099C52.9139 12.5423 52.4663 12.6646 52.0551 12.87L45.6651 16.065L32.3826 12.55C32.1317 12.485 31.8684 12.485 31.6176 12.55L18.3351 16.065L11.9476 12.87C11.5362 12.6643 11.0884 12.5416 10.6296 12.509C10.1709 12.4765 9.71021 12.5346 9.27395 12.6802C8.83768 12.8258 8.43439 13.0559 8.08712 13.3574C7.73985 13.659 7.4554 14.026 7.25006 14.4375L0.872556 27.2C0.457644 28.0302 0.389427 28.9911 0.682907 29.8716C0.976388 30.752 1.60753 31.4798 2.43756 31.895L9.22506 35.29L23.1276 45.22C23.2782 45.3286 23.4478 45.4083 23.6276 45.455L39.6276 49.455C39.7494 49.4855 39.8745 49.5007 40.0001 49.5C40.3977 49.4997 40.779 49.3414 41.0601 49.06L54.8876 35.2325L61.5626 31.895C62.3926 31.4798 63.0237 30.752 63.3172 29.8716C63.6107 28.9911 63.5425 28.0302 63.1276 27.2ZM49.8776 35.99L40.9276 28.82C40.6389 28.589 40.2751 28.4727 39.906 28.4935C39.5369 28.5142 39.1885 28.6706 38.9276 28.9325C34.2651 33.63 29.0526 33.0375 25.7301 30.9125C25.6647 30.8722 25.6096 30.8174 25.5688 30.7524C25.5281 30.6874 25.5028 30.6139 25.4951 30.5375C25.4862 30.4675 25.493 30.3964 25.5151 30.3294C25.5371 30.2623 25.5739 30.2011 25.6226 30.15L36.6076 19.5H45.0726L52.1751 33.705L49.8776 35.99ZM3.52756 28.9225C3.48621 28.7972 3.4961 28.6606 3.55506 28.5425L9.93506 15.7775C9.97699 15.6943 10.0413 15.6244 10.1209 15.5758C10.2004 15.5273 10.2919 15.5019 10.3851 15.5025C10.4623 15.5026 10.5384 15.5206 10.6076 15.555L16.1601 18.33L9.33006 32L3.77756 29.225C3.71764 29.194 3.6646 29.1513 3.62164 29.0993C3.57867 29.0473 3.54667 28.9872 3.52756 28.9225ZM39.5401 46.34L24.6401 42.615L11.9151 33.525L19.2101 18.9375L32.0001 15.5525L35.7001 16.5325C35.4171 16.5872 35.1563 16.7237 34.9501 16.925L23.5251 28.0125C23.1541 28.3832 22.8712 28.8326 22.6973 29.3274C22.5233 29.8221 22.4628 30.3496 22.5202 30.8709C22.5775 31.3923 22.7513 31.894 23.0287 32.3391C23.306 32.7842 23.6799 33.1613 24.1226 33.4425C29.1776 36.6725 35.3101 36.065 40.0726 31.97L47.7501 38.125L39.5401 46.34ZM60.4726 28.9225C60.452 28.9849 60.4193 29.0426 60.3764 29.0924C60.3335 29.1421 60.2812 29.183 60.2226 29.2125L54.6701 32L47.8401 18.33L53.3926 15.555C53.4514 15.5255 53.5154 15.5078 53.5811 15.5031C53.6467 15.4984 53.7126 15.5067 53.7751 15.5275C53.8375 15.5481 53.8952 15.5807 53.9449 15.6236C53.9947 15.6665 54.0355 15.7188 54.0651 15.7775L60.4451 28.5425C60.504 28.6606 60.5139 28.7972 60.4726 28.9225ZM32.4726 54.3625C32.3763 54.7483 32.1308 55.0801 31.79 55.285C31.4491 55.4898 31.0409 55.551 30.6551 55.455L20.2226 52.8475C20.0426 52.8014 19.8729 52.7216 19.7226 52.6125L13.1301 47.91C12.8062 47.6779 12.5877 47.3267 12.5228 46.9336C12.4578 46.5405 12.5517 46.1376 12.7838 45.8138C13.0159 45.4899 13.3671 45.2714 13.7602 45.2065C14.1533 45.1415 14.5562 45.2354 14.8801 45.4675L21.2276 50L31.3801 52.5375C31.5717 52.5854 31.7519 52.6707 31.9105 52.7884C32.0691 52.9061 32.2029 53.054 32.3041 53.2236C32.4054 53.3932 32.4722 53.5811 32.5007 53.7765C32.5292 53.9719 32.5187 54.1711 32.4701 54.3625H32.4726Z" fill="white"/>
</svg>
