<svg width="64" height="64" viewBox="0 0 64 64" fill="none" xmlns="http://www.w3.org/2000/svg">
<path d="M8.78934 54.9387L25.76 37.968M47.1307 30.4213L42.0507 45.6613C41.9696 45.9056 41.8308 46.1267 41.646 46.3059C41.4613 46.4851 41.236 46.6171 40.9893 46.6907L9.848 55.9467C9.56745 56.03 9.26941 56.0348 8.98632 55.9605C8.70324 55.8862 8.44596 55.7357 8.24247 55.5253C8.03899 55.3149 7.8971 55.0528 7.83225 54.7674C7.7674 54.482 7.78207 54.1843 7.87467 53.9067L17.9867 23.576C18.0591 23.3582 18.1776 23.1586 18.3341 22.9906C18.4905 22.8227 18.6812 22.6904 18.8933 22.6027L33.2587 16.688C33.5507 16.5674 33.8719 16.5359 34.1818 16.5976C34.4917 16.6593 34.7764 16.8114 35 17.0347L46.744 28.784C46.9541 28.9941 47.1016 29.2585 47.1699 29.5477C47.2382 29.8369 47.2246 30.1394 47.1307 30.4213Z" stroke="white" stroke-width="4" stroke-linecap="round" stroke-linejoin="round"/>
<path d="M47.4453 29.4827L54.9867 21.9387C55.9865 20.9385 56.5482 19.5822 56.5482 18.168C56.5482 16.7538 55.9865 15.3975 54.9867 14.3973L49.3333 8.73867C48.838 8.2432 48.25 7.85015 47.6028 7.58199C46.9556 7.31383 46.2619 7.17581 45.5613 7.17581C44.8608 7.17581 44.1671 7.31383 43.5198 7.58199C42.8726 7.85015 42.2846 8.2432 41.7893 8.73867L34.248 16.2827M31.416 32.3093C31.0444 31.938 30.6034 31.6434 30.118 31.4425C29.6326 31.2416 29.1124 31.1382 28.587 31.1383C28.0617 31.1385 27.5415 31.2421 27.0563 31.4432C26.571 31.6444 26.13 31.9391 25.7587 32.3107C25.3873 32.6822 25.0927 33.1233 24.8918 33.6087C24.6909 34.0941 24.5875 34.6143 24.5876 35.1396C24.5878 35.665 24.6914 36.1851 24.8925 36.6704C25.0937 37.1557 25.3884 37.5966 25.76 37.968C26.5104 38.718 27.528 39.1393 28.5889 39.139C29.6499 39.1388 30.6673 38.7171 31.4173 37.9667C32.1674 37.2163 32.5886 36.1987 32.5883 35.1377C32.5881 34.0768 32.1664 33.0594 31.416 32.3093Z" stroke="white" stroke-width="4" stroke-linecap="round" stroke-linejoin="round"/>
</svg>
