<svg width="64" height="64" viewBox="0 0 64 64" fill="none" xmlns="http://www.w3.org/2000/svg">
<path d="M17.0187 13.248L24.6454 20.8747C26.8282 19.4353 29.3854 18.6681 32 18.6681C34.6147 18.6681 37.1719 19.4353 39.3547 20.8747L46.9814 13.248C42.7269 9.85109 37.4443 8.0009 32 8.0009C26.5558 8.0009 21.2732 9.85109 17.0187 13.248ZM50.752 17.0187L43.1254 24.6453C44.5647 26.8281 45.3319 29.3853 45.3319 32C45.3319 34.6147 44.5647 37.1718 43.1254 39.3547L50.752 46.9813C54.1489 42.7268 55.9991 37.4442 55.9991 32C55.9991 26.5558 54.1489 21.2731 50.752 17.0187ZM46.9814 50.752L39.3547 43.1253C37.1719 44.5647 34.6147 45.3319 32 45.3319C29.3854 45.3319 26.8282 44.5647 24.6454 43.1253L17.0187 50.752C21.2732 54.1489 26.5558 55.9991 32 55.9991C37.4443 55.9991 42.7269 54.1489 46.9814 50.752ZM13.248 46.9813L20.8747 39.3547C19.4353 37.1718 18.6681 34.6147 18.6681 32C18.6681 29.3853 19.4353 26.8281 20.8747 24.6453L13.248 17.0187C9.85112 21.2731 8.00093 26.5558 8.00093 32C8.00093 37.4442 9.85112 42.7268 13.248 46.9813ZM11.2587 11.2587C22.7147 -0.197343 41.2854 -0.197343 52.7414 11.2587C64.1974 22.7147 64.1974 41.2853 52.7414 52.7413C41.2854 64.1973 22.7147 64.1973 11.2587 52.7413C-0.197313 41.2853 -0.197313 22.7147 11.2587 11.2587ZM37.6587 26.344C36.9181 25.5911 36.0359 24.9923 35.0627 24.5821C34.0896 24.1719 33.0449 23.9584 31.9888 23.954C30.9328 23.9496 29.8863 24.1543 28.9098 24.5563C27.9332 24.9583 27.0459 25.5497 26.2991 26.2964C25.5523 27.0431 24.9607 27.9302 24.5584 28.9066C24.1561 29.8831 23.9512 30.9295 23.9554 31.9855C23.9595 33.0416 24.1728 34.0864 24.5827 35.0596C24.9927 36.0328 25.5913 36.9153 26.344 37.656C27.8575 39.0875 29.8696 39.8722 31.9526 39.8432C34.0356 39.8143 36.0252 38.9739 37.4982 37.5009C38.9713 36.0278 39.8116 34.0383 39.8406 31.9553C39.8696 29.8723 39.0849 27.8601 37.6534 26.3467" fill="white"/>
</svg>
