<svg width="64" height="64" viewBox="0 0 64 64" fill="none" xmlns="http://www.w3.org/2000/svg">
<path d="M18.6665 18.6667H18.6905M34.6665 37.3334H50.6665C53.1518 37.3334 54.3945 37.3334 55.3731 37.7387C56.0207 38.0067 56.609 38.3998 57.1045 38.8953C57.6001 39.3908 57.9931 39.9792 58.2611 40.6267C58.6665 41.6054 58.6665 42.848 58.6665 45.3334C58.6665 47.8187 58.6665 49.0614 58.2611 50.04C57.9931 50.6876 57.6001 51.2759 57.1045 51.7714C56.609 52.267 56.0207 52.66 55.3731 52.928C54.3945 53.3334 53.1518 53.3334 50.6665 53.3334H34.6665M39.9998 13.3334H50.6665C53.1518 13.3334 54.3945 13.3334 55.3731 13.7387C56.0207 14.0067 56.609 14.3998 57.1045 14.8953C57.6001 15.3908 57.9931 15.9792 58.2611 16.6267C58.6665 17.6054 58.6665 18.848 58.6665 21.3334C58.6665 23.8187 58.6665 25.0614 58.2611 26.04C57.9931 26.6876 57.6001 27.2759 57.1045 27.7714C56.609 28.267 56.0207 28.66 55.3731 28.928C54.3945 29.3334 53.1518 29.3334 50.6665 29.3334H39.9998M18.6665 5.33337C15.7306 5.33249 12.8765 6.30061 10.5471 8.08753C8.21767 9.87445 6.54314 12.3802 5.78335 15.2161C5.02356 18.0519 5.22098 21.0593 6.345 23.7714C7.46901 26.4836 9.45676 28.749 11.9998 30.216V47.5814C11.9998 49.7627 11.9998 50.8507 12.4051 51.832C12.8105 52.8107 13.5838 53.5814 15.1251 55.1254L18.6665 58.6667L24.2878 53.0454C24.5465 52.7867 24.6771 52.656 24.7838 52.5147C25.0663 52.1455 25.2474 51.7088 25.3091 51.248C25.3331 51.072 25.3331 50.888 25.3331 50.5227C25.3331 50.2267 25.3331 50.0774 25.3171 49.9334C25.2756 49.5555 25.1538 49.1909 24.9598 48.864C24.855 48.6979 24.741 48.5376 24.6185 48.384L21.3331 44L23.1998 41.512C24.2558 40.1014 24.7865 39.3974 25.0585 38.576C25.3331 37.7547 25.3331 36.8747 25.3331 35.1094V30.216C27.8762 28.749 29.8639 26.4836 30.988 23.7714C32.112 21.0593 32.3094 18.0519 31.5496 15.2161C30.7898 12.3802 29.1153 9.87445 26.7859 8.08753C24.4564 6.30061 21.6023 5.33249 18.6665 5.33337Z" stroke="white" stroke-width="4" stroke-linecap="round" stroke-linejoin="round"/>
</svg>
