<svg width="72" height="64" viewBox="0 0 72 64" fill="none" xmlns="http://www.w3.org/2000/svg">
<g clip-path="url(#clip0_678_1073)">
<path d="M35.9998 10C27.8498 10 21.1498 13.7 16.0123 18.4625C11.1998 22.9375 7.8748 28.25 6.1748 32C7.8748 35.75 11.1998 41.0625 15.9998 45.5375C21.1498 50.3 27.8498 54 35.9998 54C44.1498 54 50.8498 50.3 55.9873 45.5375C60.7998 41.0625 64.1248 35.75 65.8248 32C64.1248 28.25 60.7998 22.9375 55.9998 18.4625C50.8498 13.7 44.1498 10 35.9998 10ZM11.9248 14.075C17.8123 8.6 25.8998 4 35.9998 4C46.0998 4 54.1873 8.6 60.0748 14.075C65.9248 19.5125 69.8373 26 71.6998 30.4625C72.1123 31.45 72.1123 32.55 71.6998 33.5375C69.8373 38 65.9248 44.5 60.0748 49.925C54.1873 55.4 46.0998 60 35.9998 60C25.8998 60 17.8123 55.4 11.9248 49.925C6.0748 44.5 2.1623 38 0.312305 33.5375C-0.100195 32.55 -0.100195 31.45 0.312305 30.4625C2.1623 26 6.0748 19.5 11.9248 14.075ZM35.9998 42C41.5248 42 45.9998 37.525 45.9998 32C45.9998 26.475 41.5248 22 35.9998 22H35.7498C35.9123 22.6375 35.9998 23.3125 35.9998 24C35.9998 28.4125 32.4123 32 27.9998 32C27.3123 32 26.6373 31.9125 25.9998 31.75V32C25.9998 37.525 30.4748 42 35.9998 42ZM35.9998 16C40.2433 16 44.3129 17.6857 47.3135 20.6863C50.3141 23.6869 51.9998 27.7565 51.9998 32C51.9998 36.2435 50.3141 40.3131 47.3135 43.3137C44.3129 46.3143 40.2433 48 35.9998 48C31.7563 48 27.6867 46.3143 24.6861 43.3137C21.6855 40.3131 19.9998 36.2435 19.9998 32C19.9998 27.7565 21.6855 23.6869 24.6861 20.6863C27.6867 17.6857 31.7563 16 35.9998 16Z" fill="white"/>
</g>
<defs>
<clipPath id="clip0_678_1073">
<rect width="72" height="64" fill="white"/>
</clipPath>
</defs>
</svg>
