<svg width="64" height="64" viewBox="0 0 64 64" fill="none" xmlns="http://www.w3.org/2000/svg">
<path d="M31.7922 12.7733C44.5229 8.43202 50.8882 6.26402 54.3122 9.68802C57.7362 13.112 55.5656 19.4747 51.2269 32.208L48.2722 40.8774C44.9389 50.656 43.2722 55.544 40.5229 55.9494C39.7842 56.056 39.0216 55.992 38.2909 55.7574C35.5709 54.8854 34.1362 49.7307 31.2616 39.4213C30.6242 37.136 30.3069 35.992 29.5816 35.1173C29.3707 34.8643 29.1368 34.6313 28.8829 34.4213C28.0082 33.6933 26.8669 33.376 24.5789 32.7387C14.2696 29.864 9.11489 28.4293 8.24289 25.7093C8.00951 24.9897 7.94384 24.2263 8.05089 23.4774C8.45622 20.7307 13.3442 19.0613 23.1229 15.728L31.7922 12.7733Z" stroke="white" stroke-width="4" stroke-linecap="round" stroke-linejoin="round"/>
</svg>
