<svg width="64" height="64" viewBox="0 0 64 64" fill="none" xmlns="http://www.w3.org/2000/svg">
<path fill-rule="evenodd" clip-rule="evenodd" d="M24.0001 32H17.9521C17.3651 33.0168 16.459 33.8114 15.3743 34.2607C14.2896 34.71 13.087 34.7888 11.953 34.4849C10.8189 34.1811 9.81683 33.5115 9.10212 32.5801C8.3874 31.6486 8 30.5074 8 29.3333C8 28.1593 8.3874 27.018 9.10212 26.0866C9.81683 25.1552 10.8189 24.4856 11.953 24.1817C13.087 23.8779 14.2896 23.9567 15.3743 24.406C16.459 24.8553 17.3651 25.6499 17.9521 26.6667H24.0001V13.3333C24.0001 11.9188 24.562 10.5623 25.5622 9.5621C26.5624 8.5619 27.919 8 29.3335 8H50.6668C52.0813 8 53.4378 8.5619 54.438 9.5621C55.4382 10.5623 56.0001 11.9188 56.0001 13.3333V50.6667C56.0001 52.0812 55.4382 53.4377 54.438 54.4379C53.4378 55.4381 52.0813 56 50.6668 56H29.3335C27.919 56 26.5624 55.4381 25.5622 54.4379C24.562 53.4377 24.0001 52.0812 24.0001 50.6667V32ZM29.3335 32V50.6667H50.6668V13.3333H29.3335V26.6667H35.3815C35.9685 25.6499 36.8746 24.8553 37.9593 24.406C39.044 23.9567 40.2466 23.8779 41.3806 24.1817C42.5147 24.4856 43.5168 25.1552 44.2315 26.0866C44.9462 27.018 45.3336 28.1593 45.3336 29.3333C45.3336 30.5074 44.9462 31.6486 44.2315 32.5801C43.5168 33.5115 42.5147 34.1811 41.3806 34.4849C40.2466 34.7888 39.044 34.71 37.9593 34.2607C36.8746 33.8114 35.9685 33.0168 35.3815 32H29.3335Z" fill="white"/>
</svg>
