<svg width="64" height="64" viewBox="0 0 64 64" fill="none" xmlns="http://www.w3.org/2000/svg">
<g clip-path="url(#clip0_678_1080)">
<path d="M10.6667 16V42.6667H24V32C24 30.5855 24.5619 29.229 25.5621 28.2288C26.5623 27.2286 27.9188 26.6667 29.3333 26.6667H42.6667C44.0812 26.6667 45.4377 27.2286 46.4379 28.2288C47.4381 29.229 48 30.5855 48 32V42.6667H53.3333V16H10.6667ZM0 53.3334V48H10.6667C9.25218 48 7.89562 47.4381 6.89543 46.4379C5.89524 45.4377 5.33333 44.0812 5.33333 42.6667V16C5.33333 14.5855 5.89524 13.229 6.89543 12.2288C7.89562 11.2286 9.25218 10.6667 10.6667 10.6667H53.3333C54.7478 10.6667 56.1044 11.2286 57.1046 12.2288C58.1048 13.229 58.6667 14.5855 58.6667 16V42.6667C58.6667 44.0812 58.1048 45.4377 57.1046 46.4379C56.1044 47.4381 54.7478 48 53.3333 48H64V53.3334H48C48 54.7478 47.4381 56.1044 46.4379 57.1046C45.4377 58.1048 44.0812 58.6667 42.6667 58.6667H29.3333C27.9188 58.6667 26.5623 58.1048 25.5621 57.1046C24.5619 56.1044 24 54.7478 24 53.3334H0ZM30.6667 53.3334C30.313 53.3334 29.9739 53.4738 29.7239 53.7239C29.4738 53.9739 29.3333 54.3131 29.3333 54.6667C29.3333 55.0203 29.4738 55.3595 29.7239 55.6095C29.9739 55.8595 30.313 56 30.6667 56C31.0203 56 31.3594 55.8595 31.6095 55.6095C31.8595 55.3595 32 55.0203 32 54.6667C32 54.3131 31.8595 53.9739 31.6095 53.7239C31.3594 53.4738 31.0203 53.3334 30.6667 53.3334ZM41.3333 53.3334C40.9797 53.3334 40.6406 53.4738 40.3905 53.7239C40.1405 53.9739 40 54.3131 40 54.6667C40 55.0203 40.1405 55.3595 40.3905 55.6095C40.6406 55.8595 40.9797 56 41.3333 56C41.687 56 42.0261 55.8595 42.2761 55.6095C42.5262 55.3595 42.6667 55.0203 42.6667 54.6667C42.6667 54.3131 42.5262 53.9739 42.2761 53.7239C42.0261 53.4738 41.687 53.3334 41.3333 53.3334ZM34.6667 53.3334V56H37.3333V53.3334H34.6667ZM29.3333 32V50.6667H42.6667V32H29.3333Z" fill="white"/>
</g>
<defs>
<clipPath id="clip0_678_1080">
<rect width="64" height="64" fill="white"/>
</clipPath>
</defs>
</svg>
