<svg width="64" height="64" viewBox="0 0 64 64" fill="none" xmlns="http://www.w3.org/2000/svg">
<path d="M46.6663 50.6667H58.6663M58.6663 50.6667L51.9997 44M58.6663 50.6667L51.9997 57.3334M31.9997 5.33337L25.333 12L31.9997 18.6667" stroke="white" stroke-width="4" stroke-linecap="round" stroke-linejoin="round"/>
<path d="M27.9997 12C33.304 12 38.3911 14.1071 42.1418 17.8579C45.8925 21.6086 47.9997 26.6957 47.9997 32C47.9997 37.3043 45.8925 42.3914 42.1418 46.1421C38.3911 49.8929 33.304 52 27.9997 52H5.33301" stroke="white" stroke-width="4" stroke-linecap="round" stroke-linejoin="round"/>
<path d="M18.016 14.6667C14.9708 16.4212 12.4416 18.9471 10.6832 21.99C8.92484 25.033 7.99937 28.4856 8 32.0001C8 36.5014 9.488 40.6561 12 44.0001" stroke="white" stroke-width="4" stroke-linecap="round" stroke-linejoin="round"/>
</svg>
