<svg width="64" height="64" viewBox="0 0 64 64" fill="none" xmlns="http://www.w3.org/2000/svg">
<path d="M46 2L34 14L36.83 16.804L44 9.636V42H20V20H16V42C16 44.206 17.794 46 20 46H44C46.206 46 48 44.206 48 42V9.63L55.172 16.804L58 14L46 2Z" fill="white"/>
<path d="M37 38H27C25.346 38 24 36.654 24 35V25C24 23.346 25.346 22 27 22H37C38.654 22 40 23.346 40 25V35C40 36.654 38.654 38 37 38ZM28 34H36V26H28V34ZM32 62V58C46.336 58 58 46.336 58 32C58 29.47 57.638 26.972 56.924 24.57L60.758 23.43C61.58 26.2 62 29.084 62 32C62 48.542 48.542 62 32 62ZM3.24201 40.57C2.41573 37.7884 1.99737 34.9017 2.00001 32C2.00001 15.458 15.458 2 32 2V6C17.664 6 6.00001 17.664 6.00001 32C6.00001 34.53 6.36201 37.03 7.07601 39.43L3.24201 40.57Z" fill="white"/>
</svg>
