<svg width="64" height="64" viewBox="0 0 64 64" fill="none" xmlns="http://www.w3.org/2000/svg">
<path d="M53.3337 58.6666V45.3333C53.3337 40.304 53.3337 37.792 51.771 36.2293C50.2083 34.6666 47.6963 34.6666 42.667 34.6666L32.0003 58.6666L21.3337 34.6666C16.3043 34.6666 13.7923 34.6666 12.2297 36.2293C10.667 37.792 10.667 40.304 10.667 45.3333V58.6666" stroke="white" stroke-width="4" stroke-linecap="round" stroke-linejoin="round"/>
<path d="M32.0003 40L30.667 50.6666L32.0003 54.6666L33.3337 50.6666L32.0003 40ZM32.0003 40L29.3337 34.6666H34.667L32.0003 40ZM41.3337 17.3333V14.6666C41.3337 13.441 41.0922 12.2273 40.6232 11.0949C40.1542 9.96256 39.4667 8.93366 38.6 8.06698C37.7333 7.2003 36.7044 6.51281 35.572 6.04377C34.4397 5.57473 33.226 5.33331 32.0003 5.33331C30.7747 5.33331 29.561 5.57473 28.4286 6.04377C27.2962 6.51281 26.2673 7.2003 25.4007 8.06698C24.534 8.93366 23.8465 9.96256 23.3774 11.0949C22.9084 12.2273 22.667 13.441 22.667 14.6666V17.3333C22.667 18.559 22.9084 19.7727 23.3774 20.905C23.8465 22.0374 24.534 23.0663 25.4007 23.933C26.2673 24.7997 27.2962 25.4871 28.4286 25.9562C29.561 26.4252 30.7747 26.6666 32.0003 26.6666C33.226 26.6666 34.4397 26.4252 35.572 25.9562C36.7044 25.4871 37.7333 24.7997 38.6 23.933C39.4667 23.0663 40.1542 22.0374 40.6232 20.905C41.0922 19.7727 41.3337 18.559 41.3337 17.3333Z" stroke="white" stroke-width="4" stroke-linecap="round" stroke-linejoin="round"/>
</svg>
