<svg width="64" height="64" viewBox="0 0 64 64" fill="none" xmlns="http://www.w3.org/2000/svg">
<path d="M24.7997 53.3333H10.6663C7.73301 53.3333 5.33301 50.9333 5.33301 48V16C5.33301 13.0666 7.73301 10.6666 10.6663 10.6666H26.6663L31.9997 16H53.333C56.2663 16 58.6663 18.4 58.6663 21.3333V38.9333C57.0663 37.8666 55.1997 36.8 53.333 36V21.3333H10.6663V48H24.7997C24.7997 48.2666 24.533 48.5333 24.533 48.8L23.4663 50.6666L24.2663 52.5333C24.533 52.8 24.533 53.0666 24.7997 53.3333ZM61.333 50.6666C58.933 56.8 52.533 61.3333 45.333 61.3333C38.133 61.3333 31.733 56.8 29.333 50.6666C31.733 44.5333 38.133 40 45.333 40C52.533 40 58.933 44.5333 61.333 50.6666ZM51.9997 50.6666C51.9997 46.9333 49.0663 44 45.333 44C41.5997 44 38.6663 46.9333 38.6663 50.6666C38.6663 54.4 41.5997 57.3333 45.333 57.3333C49.0663 57.3333 51.9997 54.4 51.9997 50.6666ZM45.333 48C43.733 48 42.6663 49.0666 42.6663 50.6666C42.6663 52.2666 43.733 53.3333 45.333 53.3333C46.933 53.3333 47.9997 52.2666 47.9997 50.6666C47.9997 49.0666 46.933 48 45.333 48Z" fill="white"/>
</svg>
