<svg width="64" height="64" viewBox="0 0 64 64" fill="none" xmlns="http://www.w3.org/2000/svg">
<path d="M13.333 42.6666L26.6663 34.6666M37.333 29.3333L50.6663 21.3333M31.9997 13.3333V26.6666M31.9997 37.3333V50.6666M13.333 21.3333L26.6663 29.3333M37.333 34.6666L50.6663 42.6666M54.6663 24V38.6666M35.9997 54.6666L50.6663 46.6666M11.9997 46.6666L27.9997 54.6666M9.33301 40V24M11.9997 17.3333L27.9997 9.33331M51.9997 17.3333L35.9997 9.33331" stroke="white" stroke-width="4" stroke-linecap="round" stroke-linejoin="round"/>
<path d="M32 13.3333C34.2091 13.3333 36 11.5425 36 9.33331C36 7.12417 34.2091 5.33331 32 5.33331C29.7909 5.33331 28 7.12417 28 9.33331C28 11.5425 29.7909 13.3333 32 13.3333Z" stroke="white" stroke-width="4" stroke-linecap="round" stroke-linejoin="round"/>
<path d="M32 58.6666C34.2091 58.6666 36 56.8758 36 54.6666C36 52.4575 34.2091 50.6666 32 50.6666C29.7909 50.6666 28 52.4575 28 54.6666C28 56.8758 29.7909 58.6666 32 58.6666Z" stroke="white" stroke-width="4" stroke-linecap="round" stroke-linejoin="round"/>
<path d="M9.33301 24C11.5421 24 13.333 22.2091 13.333 20C13.333 17.7909 11.5421 16 9.33301 16C7.12387 16 5.33301 17.7909 5.33301 20C5.33301 22.2091 7.12387 24 9.33301 24Z" stroke="white" stroke-width="4" stroke-linecap="round" stroke-linejoin="round"/>
<path d="M54.666 24C56.8752 24 58.666 22.2091 58.666 20C58.666 17.7909 56.8752 16 54.666 16C52.4569 16 50.666 17.7909 50.666 20C50.666 22.2091 52.4569 24 54.666 24Z" stroke="white" stroke-width="4" stroke-linecap="round" stroke-linejoin="round"/>
<path d="M54.666 48C56.8752 48 58.666 46.2091 58.666 44C58.666 41.7909 56.8752 40 54.666 40C52.4569 40 50.666 41.7909 50.666 44C50.666 46.2091 52.4569 48 54.666 48Z" stroke="white" stroke-width="4" stroke-linecap="round" stroke-linejoin="round"/>
<path d="M9.33301 48C11.5421 48 13.333 46.2091 13.333 44C13.333 41.7909 11.5421 40 9.33301 40C7.12387 40 5.33301 41.7909 5.33301 44C5.33301 46.2091 7.12387 48 9.33301 48Z" stroke="white" stroke-width="4" stroke-linecap="round" stroke-linejoin="round"/>
<path d="M31.9993 26L37.3327 29V35L31.9993 38L26.666 35V29L31.9993 26Z" stroke="white" stroke-width="4" stroke-linecap="round" stroke-linejoin="round"/>
</svg>
