<svg width="64" height="64" viewBox="0 0 64 64" fill="none" xmlns="http://www.w3.org/2000/svg">
<path d="M21.3333 8H10.6667C9.95942 8 9.28115 8.28095 8.78105 8.78105C8.28095 9.28115 8 9.95942 8 10.6667V21.3333M21.3333 56H10.6667C9.95942 56 9.28115 55.7191 8.78105 55.219C8.28095 54.7189 8 54.0406 8 53.3333V42.6667M42.6667 56H53.3333C54.0406 56 54.7189 55.7191 55.219 55.219C55.7191 54.7189 56 54.0406 56 53.3333V42.6667M42.6667 8H53.3333C54.0406 8 54.7189 8.28095 55.219 8.78105C55.7191 9.28115 56 9.95942 56 10.6667V21.3333" stroke="white" stroke-width="5.33333" stroke-linecap="round" stroke-linejoin="round"/>
<path d="M31.9997 41.3333C33.2253 41.3333 34.439 41.0919 35.5714 40.6229C36.7038 40.1538 37.7327 39.4663 38.5993 38.5996C39.466 37.733 40.1535 36.7041 40.6226 35.5717C41.0916 34.4393 41.333 33.2257 41.333 32M31.9997 41.3333C29.5243 41.3333 27.1504 40.35 25.4 38.5996C23.6497 36.8493 22.6663 34.4753 22.6663 32M31.9997 41.3333V46.6666M41.333 32C41.333 30.7743 41.0916 29.5606 40.6226 28.4283C40.1535 27.2959 39.466 26.267 38.5993 25.4003C37.7327 24.5336 36.7038 23.8461 35.5714 23.3771C34.439 22.9081 33.2253 22.6666 31.9997 22.6666M41.333 32H46.6663M31.9997 22.6666C29.5243 22.6666 27.1504 23.65 25.4 25.4003C23.6497 27.1507 22.6663 29.5246 22.6663 32M31.9997 22.6666V17.3333M22.6663 32H17.333" stroke="white" stroke-width="5.33333" stroke-miterlimit="10" stroke-linecap="round" stroke-linejoin="round"/>
<path d="M31.9997 34.6666C32.7069 34.6666 33.3852 34.3857 33.8853 33.8856C34.3854 33.3855 34.6663 32.7072 34.6663 32C34.6663 31.2927 34.3854 30.6145 33.8853 30.1144C33.3852 29.6143 32.7069 29.3333 31.9997 29.3333C31.2924 29.3333 30.6142 29.6143 30.1141 30.1144C29.614 30.6145 29.333 31.2927 29.333 32C29.333 32.7072 29.614 33.3855 30.1141 33.8856C30.6142 34.3857 31.2924 34.6666 31.9997 34.6666Z" fill="white"/>
</svg>
